;TYPE=PLATED
;Layer: PTH_Through
;EasyEDA Pro v2.2.47.7, 2026-04-27 23:22:34
;Gerber Generator version 0.3
M48
METRIC,LZ,0000.00000
;Hole size 1 = 0.30500 METRIC
T01C0.30500
;Hole size 2 = 0.50002 METRIC
T02C0.50002
;Hole size 3 = 0.70002 METRIC
T03C0.70002
;Hole size 4 = 0.80000 METRIC
T04C0.80000
;Hole size 5 = 0.81280 METRIC
T05C0.81280
;Hole size 6 = 0.90002 METRIC
T06C0.90002
;Hole size 7 = 0.91440 METRIC
T07C0.91440
;Hole size 8 = 1.00000 METRIC
T08C1.00000
%
G05
G90
T01
X14.478Y-23.876
X60.833Y-38.11702
X58.801Y-36.08502
X55.118Y-40.91102
X30.734Y-38.87902
X18.796Y-25.16302
X15.24Y-22.87702
X68.961Y-40.132
X51.181Y-34.798
X134.11201Y-5.842
X151.72499Y-14.605
X20.447Y-36.83
X19.685Y-40.894
X157.861Y-16.002
X122.809Y-7.874
T02
X113.371Y2.413
X112.12098Y2.41308
X110.87105Y2.41308
X109.62086Y2.41308
X108.37093Y2.41308
T03
X141.113Y1.143
X143.113Y1.143
T04
X19.59094Y-66.36393G85X19.59094Y-68.76392
X14.1909Y-66.36398G85X14.1909Y-68.76397
X58.83394Y-67.12593G85X58.83394Y-69.52592
X53.4339Y-67.12598G85X53.4339Y-69.52597
X146.08294Y-66.49093G85X146.08294Y-68.89092
X140.6829Y-66.49098G85X140.6829Y-68.89097
X99.21994Y-67.12593G85X99.21994Y-69.52592
X93.8199Y-67.12598G85X93.8199Y-69.52597
X173.13394Y-66.10993G85X173.13394Y-68.50992
X167.7339Y-66.10998G85X167.7339Y-68.50997
X105.75089Y-32.89297
X100.7509Y-32.89297
X127.08689Y-32.63897
X122.0869Y-32.63897
X149.18489Y-32.51197
X144.1849Y-32.51197
X172.93389Y-32.25797
X167.9339Y-32.25797
T05
X51.943Y-38.862
X54.483Y-38.862
X54.483Y-31.242
X51.943Y-31.242
X57.023Y-38.862
X59.563Y-38.862
X57.023Y-31.242
X59.563Y-31.242
T06
X3.683Y-73.025
X3.683Y-64.02499
X41.783Y-72.898
X41.783Y-63.89799
X126.873Y-72.263
X126.873Y-63.26299
X83.82Y-72.263
X83.82Y-63.26299
X157.226Y-72.771
X157.226Y-63.77099
X27.051Y-21.082
X24.511Y-36.322
X19.43044Y-36.32246
X14.35047Y-36.32246
X9.27047Y-36.32246
X4.19047Y-36.32246
X-0.88953Y-36.32246
X-5.96953Y-36.32246
X-8.509Y-21.082
X-3.42849Y-21.08246
X1.65151Y-21.08246
X6.73151Y-21.08246
X11.81153Y-21.08246
X16.89151Y-21.08246
X21.97148Y-21.08246
X24.511Y-21.08197
X19.431Y-21.08197
X14.351Y-21.08197
X9.27103Y-21.08197
X4.19103Y-21.08197
X-0.88897Y-21.08197
X-5.96897Y-21.08197
X-8.50903Y-36.32197
X-3.42905Y-36.32197
X1.65095Y-36.32197
X6.73095Y-36.32197
X11.81095Y-36.32197
X16.89095Y-36.32197
X21.97092Y-36.32197
X27.051Y-36.322
X72.517Y-36.576
X81.51701Y-36.576
T07
X159.512Y-5.207
X159.512Y-7.747
X159.512Y-10.287
X159.512Y-12.827
X159.512Y-15.367
X159.512Y-17.907
T08
X62.99201Y-13.462
X65.532Y-10.92201
X68.07199Y-13.462
M30