G04 Layer: TopSilkscreenLayer*
G04 EasyEDA Pro v2.2.47.7, 2026-04-27 23:22:34*
G04 Gerber Generator version 0.3*
G04 Scale: 100 percent, Rotated: No, Reflected: No*
G04 Dimensions in millimeters*
G04 Leading zeros omitted, absolute positions, 4 integers and 5 decimals*
G04 Generated by one-click*
G04 Object Configs: Pad,Via,Track,Text,Image,Dimension,BoardOutline,BoardCutout,CopperFilled,SolidRegion,FPCStiffener,Line,PlaneZone,ComponentProperty,ComponentSilkscreen,TearDrop*
G04 Layer Configs: 1,2,3,4,5,6,7,8,9,10,11,13,14,56*
G04 Copper Areas: 0*
%FSLAX45Y45*%
%MOMM*%
%ADD10C,0.1524*%
%ADD11C,0.15001*%
%ADD12C,0.203*%
%ADD13C,0.254*%
%ADD14C,0.15199*%
%ADD15C,0.3048*%
%ADD16C,0.2032*%
%ADD17C,0.1333*%
%ADD18C,0.127*%
G75*


G04 Text Start*
G54D10*
G01X11456251Y101605D02*
G01X11459299Y95255D01*
G01X11465649Y89159D01*
G01X11471745Y86111D01*
G01X11484191Y86111D01*
G01X11490287Y89159D01*
G01X11496637Y95255D01*
G01X11499685Y101605D01*
G01X11502733Y110749D01*
G01X11502733Y126243D01*
G01X11499685Y135641D01*
G01X11496637Y141737D01*
G01X11490287Y148087D01*
G01X11484191Y151135D01*
G01X11471745Y151135D01*
G01X11465649Y148087D01*
G01X11459299Y141737D01*
G01X11456251Y135641D01*
G01X11426025Y86111D02*
G01X11426025Y151135D01*
G01X11426025Y86111D02*
G01X11382845Y151135D01*
G01X11382845Y86111D02*
G01X11382845Y151135D01*
G01X11352619Y98557D02*
G01X11346523Y95255D01*
G01X11337379Y86111D01*
G01X11337379Y151135D01*
G01X2433320Y-24765D02*
G01X2433320Y-89789D01*
G01X2476754Y-24765D02*
G01X2476754Y-89789D01*
G01X2433320Y-55753D02*
G01X2476754Y-55753D01*
G01X2506980Y-37211D02*
G01X2513076Y-33909D01*
G01X2522220Y-24765D01*
G01X2522220Y-89789D01*
G01X148666Y-7394880D02*
G01X213690Y-7394880D01*
G01X148666Y-7394880D02*
G01X148666Y-7366940D01*
G01X151714Y-7357796D01*
G01X154762Y-7354748D01*
G01X161112Y-7351446D01*
G01X167208Y-7351446D01*
G01X173304Y-7354748D01*
G01X176352Y-7357796D01*
G01X179654Y-7366940D01*
G01X179654Y-7394880D01*
G01X179654Y-7373290D02*
G01X213690Y-7351446D01*
G01X161112Y-7321220D02*
G01X157810Y-7315124D01*
G01X148666Y-7305980D01*
G01X213690Y-7305980D01*
G01X3958666Y-7382180D02*
G01X4023690Y-7382180D01*
G01X3958666Y-7382180D02*
G01X3958666Y-7354240D01*
G01X3961714Y-7345096D01*
G01X3964762Y-7342048D01*
G01X3971112Y-7338746D01*
G01X3977208Y-7338746D01*
G01X3983304Y-7342048D01*
G01X3986352Y-7345096D01*
G01X3989654Y-7354240D01*
G01X3989654Y-7382180D01*
G01X3989654Y-7360590D02*
G01X4023690Y-7338746D01*
G01X3974160Y-7305472D02*
G01X3971112Y-7305472D01*
G01X3964762Y-7302424D01*
G01X3961714Y-7299376D01*
G01X3958666Y-7293280D01*
G01X3958666Y-7280834D01*
G01X3961714Y-7274484D01*
G01X3964762Y-7271436D01*
G01X3971112Y-7268388D01*
G01X3977208Y-7268388D01*
G01X3983304Y-7271436D01*
G01X3992702Y-7277786D01*
G01X4023690Y-7308520D01*
G01X4023690Y-7265340D01*
G01X12467666Y-7318680D02*
G01X12532690Y-7318680D01*
G01X12467666Y-7318680D02*
G01X12467666Y-7290740D01*
G01X12470714Y-7281596D01*
G01X12473762Y-7278548D01*
G01X12480112Y-7275246D01*
G01X12486208Y-7275246D01*
G01X12492304Y-7278548D01*
G01X12495352Y-7281596D01*
G01X12498654Y-7290740D01*
G01X12498654Y-7318680D01*
G01X12498654Y-7297090D02*
G01X12532690Y-7275246D01*
G01X12467666Y-7238924D02*
G01X12467666Y-7204888D01*
G01X12492304Y-7223430D01*
G01X12492304Y-7214286D01*
G01X12495352Y-7207936D01*
G01X12498654Y-7204888D01*
G01X12507798Y-7201840D01*
G01X12514148Y-7201840D01*
G01X12523292Y-7204888D01*
G01X12529642Y-7210984D01*
G01X12532690Y-7220382D01*
G01X12532690Y-7229780D01*
G01X12529642Y-7238924D01*
G01X12526340Y-7241972D01*
G01X12520244Y-7245020D01*
G01X8162366Y-7318680D02*
G01X8227390Y-7318680D01*
G01X8162366Y-7318680D02*
G01X8162366Y-7290740D01*
G01X8165414Y-7281596D01*
G01X8168462Y-7278548D01*
G01X8174812Y-7275246D01*
G01X8180908Y-7275246D01*
G01X8187004Y-7278548D01*
G01X8190052Y-7281596D01*
G01X8193354Y-7290740D01*
G01X8193354Y-7318680D01*
G01X8193354Y-7297090D02*
G01X8227390Y-7275246D01*
G01X8162366Y-7214286D02*
G01X8205546Y-7245020D01*
G01X8205546Y-7198792D01*
G01X8162366Y-7214286D02*
G01X8227390Y-7214286D01*
G01X15502966Y-7369480D02*
G01X15567990Y-7369480D01*
G01X15502966Y-7369480D02*
G01X15502966Y-7341540D01*
G01X15506014Y-7332396D01*
G01X15509062Y-7329348D01*
G01X15515412Y-7326046D01*
G01X15521508Y-7326046D01*
G01X15527604Y-7329348D01*
G01X15530652Y-7332396D01*
G01X15533954Y-7341540D01*
G01X15533954Y-7369480D01*
G01X15533954Y-7347890D02*
G01X15567990Y-7326046D01*
G01X15502966Y-7258736D02*
G01X15502966Y-7289724D01*
G01X15530652Y-7292772D01*
G01X15527604Y-7289724D01*
G01X15524556Y-7280580D01*
G01X15524556Y-7271182D01*
G01X15527604Y-7261784D01*
G01X15533954Y-7255688D01*
G01X15543098Y-7252640D01*
G01X15549448Y-7252640D01*
G01X15558592Y-7255688D01*
G01X15564942Y-7261784D01*
G01X15567990Y-7271182D01*
G01X15567990Y-7280580D01*
G01X15564942Y-7289724D01*
G01X15561640Y-7292772D01*
G01X15555544Y-7295820D01*
G01X774954Y-5693410D02*
G01X768604Y-5687314D01*
G01X759460Y-5684266D01*
G01X747014Y-5684266D01*
G01X737616Y-5687314D01*
G01X731520Y-5693410D01*
G01X731520Y-5699760D01*
G01X734568Y-5705856D01*
G01X737616Y-5708904D01*
G01X743966Y-5711952D01*
G01X762508Y-5718302D01*
G01X768604Y-5721350D01*
G01X771652Y-5724398D01*
G01X774954Y-5730748D01*
G01X774954Y-5739892D01*
G01X768604Y-5746242D01*
G01X759460Y-5749290D01*
G01X747014Y-5749290D01*
G01X737616Y-5746242D01*
G01X731520Y-5739892D01*
G01X805180Y-5684266D02*
G01X820420Y-5749290D01*
G01X835914Y-5684266D02*
G01X820420Y-5749290D01*
G01X835914Y-5684266D02*
G01X851408Y-5749290D01*
G01X866902Y-5684266D02*
G01X851408Y-5749290D01*
G01X897128Y-5696712D02*
G01X903224Y-5693410D01*
G01X912368Y-5684266D01*
G01X912368Y-5749290D01*
G01X4699254Y-5769610D02*
G01X4692904Y-5763514D01*
G01X4683760Y-5760466D01*
G01X4671314Y-5760466D01*
G01X4661916Y-5763514D01*
G01X4655820Y-5769610D01*
G01X4655820Y-5775960D01*
G01X4658868Y-5782056D01*
G01X4661916Y-5785104D01*
G01X4668266Y-5788152D01*
G01X4686808Y-5794502D01*
G01X4692904Y-5797550D01*
G01X4695952Y-5800598D01*
G01X4699254Y-5806948D01*
G01X4699254Y-5816092D01*
G01X4692904Y-5822442D01*
G01X4683760Y-5825490D01*
G01X4671314Y-5825490D01*
G01X4661916Y-5822442D01*
G01X4655820Y-5816092D01*
G01X4729480Y-5760466D02*
G01X4744720Y-5825490D01*
G01X4760214Y-5760466D02*
G01X4744720Y-5825490D01*
G01X4760214Y-5760466D02*
G01X4775708Y-5825490D01*
G01X4791202Y-5760466D02*
G01X4775708Y-5825490D01*
G01X4824476Y-5775960D02*
G01X4824476Y-5772912D01*
G01X4827524Y-5766562D01*
G01X4830572Y-5763514D01*
G01X4836668Y-5760466D01*
G01X4849114Y-5760466D01*
G01X4855464Y-5763514D01*
G01X4858512Y-5766562D01*
G01X4861560Y-5772912D01*
G01X4861560Y-5779008D01*
G01X4858512Y-5785104D01*
G01X4852162Y-5794502D01*
G01X4821428Y-5825490D01*
G01X4864608Y-5825490D01*
G01X13424154Y-5706110D02*
G01X13417804Y-5700014D01*
G01X13408660Y-5696966D01*
G01X13396214Y-5696966D01*
G01X13386816Y-5700014D01*
G01X13380720Y-5706110D01*
G01X13380720Y-5712460D01*
G01X13383768Y-5718556D01*
G01X13386816Y-5721604D01*
G01X13393166Y-5724652D01*
G01X13411708Y-5731002D01*
G01X13417804Y-5734050D01*
G01X13420852Y-5737098D01*
G01X13424154Y-5743448D01*
G01X13424154Y-5752592D01*
G01X13417804Y-5758942D01*
G01X13408660Y-5761990D01*
G01X13396214Y-5761990D01*
G01X13386816Y-5758942D01*
G01X13380720Y-5752592D01*
G01X13454380Y-5696966D02*
G01X13469620Y-5761990D01*
G01X13485114Y-5696966D02*
G01X13469620Y-5761990D01*
G01X13485114Y-5696966D02*
G01X13500608Y-5761990D01*
G01X13516102Y-5696966D02*
G01X13500608Y-5761990D01*
G01X13552424Y-5696966D02*
G01X13586460Y-5696966D01*
G01X13567918Y-5721604D01*
G01X13577062Y-5721604D01*
G01X13583412Y-5724652D01*
G01X13586460Y-5727954D01*
G01X13589508Y-5737098D01*
G01X13589508Y-5743448D01*
G01X13586460Y-5752592D01*
G01X13580364Y-5758942D01*
G01X13570966Y-5761990D01*
G01X13561568Y-5761990D01*
G01X13552424Y-5758942D01*
G01X13549376Y-5755640D01*
G01X13546328Y-5749544D01*
G01X8737854Y-5769610D02*
G01X8731504Y-5763514D01*
G01X8722360Y-5760466D01*
G01X8709914Y-5760466D01*
G01X8700516Y-5763514D01*
G01X8694420Y-5769610D01*
G01X8694420Y-5775960D01*
G01X8697468Y-5782056D01*
G01X8700516Y-5785104D01*
G01X8706866Y-5788152D01*
G01X8725408Y-5794502D01*
G01X8731504Y-5797550D01*
G01X8734552Y-5800598D01*
G01X8737854Y-5806948D01*
G01X8737854Y-5816092D01*
G01X8731504Y-5822442D01*
G01X8722360Y-5825490D01*
G01X8709914Y-5825490D01*
G01X8700516Y-5822442D01*
G01X8694420Y-5816092D01*
G01X8768080Y-5760466D02*
G01X8783320Y-5825490D01*
G01X8798814Y-5760466D02*
G01X8783320Y-5825490D01*
G01X8798814Y-5760466D02*
G01X8814308Y-5825490D01*
G01X8829802Y-5760466D02*
G01X8814308Y-5825490D01*
G01X8890762Y-5760466D02*
G01X8860028Y-5803646D01*
G01X8906256Y-5803646D01*
G01X8890762Y-5760466D02*
G01X8890762Y-5825490D01*
G01X16129254Y-5668010D02*
G01X16122904Y-5661914D01*
G01X16113760Y-5658866D01*
G01X16101314Y-5658866D01*
G01X16091916Y-5661914D01*
G01X16085820Y-5668010D01*
G01X16085820Y-5674360D01*
G01X16088868Y-5680456D01*
G01X16091916Y-5683504D01*
G01X16098266Y-5686552D01*
G01X16116808Y-5692902D01*
G01X16122904Y-5695950D01*
G01X16125952Y-5698998D01*
G01X16129254Y-5705348D01*
G01X16129254Y-5714492D01*
G01X16122904Y-5720842D01*
G01X16113760Y-5723890D01*
G01X16101314Y-5723890D01*
G01X16091916Y-5720842D01*
G01X16085820Y-5714492D01*
G01X16159480Y-5658866D02*
G01X16174720Y-5723890D01*
G01X16190214Y-5658866D02*
G01X16174720Y-5723890D01*
G01X16190214Y-5658866D02*
G01X16205708Y-5723890D01*
G01X16221202Y-5658866D02*
G01X16205708Y-5723890D01*
G01X16288512Y-5658866D02*
G01X16257524Y-5658866D01*
G01X16254476Y-5686552D01*
G01X16257524Y-5683504D01*
G01X16266668Y-5680456D01*
G01X16276066Y-5680456D01*
G01X16285464Y-5683504D01*
G01X16291560Y-5689854D01*
G01X16294608Y-5698998D01*
G01X16294608Y-5705348D01*
G01X16291560Y-5714492D01*
G01X16285464Y-5720842D01*
G01X16276066Y-5723890D01*
G01X16266668Y-5723890D01*
G01X16257524Y-5720842D01*
G01X16254476Y-5717540D01*
G01X16251428Y-5711444D01*
G54D11*
G01X-877900Y-3461588D02*
G01X-822274Y-3461588D01*
G01X-877900Y-3461588D02*
G01X-877900Y-3443046D01*
G01X-875360Y-3435172D01*
G01X-870026Y-3429838D01*
G01X-864692Y-3427298D01*
G01X-856818Y-3424504D01*
G01X-843356Y-3424504D01*
G01X-835482Y-3427298D01*
G01X-830148Y-3429838D01*
G01X-824814Y-3435172D01*
G01X-822274Y-3443046D01*
G01X-822274Y-3461588D01*
G01X-867486Y-3396818D02*
G01X-870026Y-3391484D01*
G01X-877900Y-3383356D01*
G01X-822274Y-3383356D01*
G01X-877900Y-3350336D02*
G01X-877900Y-3321126D01*
G01X-856818Y-3337128D01*
G01X-856818Y-3329000D01*
G01X-854024Y-3323666D01*
G01X-851484Y-3321126D01*
G01X-843356Y-3318332D01*
G01X-838022Y-3318332D01*
G01X-830148Y-3321126D01*
G01X-824814Y-3326460D01*
G01X-822274Y-3334334D01*
G01X-822274Y-3342208D01*
G01X-824814Y-3350336D01*
G01X-827608Y-3352876D01*
G01X-832942Y-3355670D01*
G01X-623900Y-3456508D02*
G01X-623900Y-3427298D01*
G01X-602818Y-3443046D01*
G01X-602818Y-3435172D01*
G01X-600024Y-3429838D01*
G01X-597484Y-3427298D01*
G01X-589356Y-3424504D01*
G01X-584022Y-3424504D01*
G01X-576148Y-3427298D01*
G01X-570814Y-3432378D01*
G01X-568274Y-3440506D01*
G01X-568274Y-3448380D01*
G01X-570814Y-3456508D01*
G01X-573608Y-3459048D01*
G01X-578942Y-3461588D01*
G01X-623900Y-3396818D02*
G01X-568274Y-3375482D01*
G01X-623900Y-3354146D02*
G01X-568274Y-3375482D01*
G01X-623900Y-3321126D02*
G01X-623900Y-3291916D01*
G01X-602818Y-3307918D01*
G01X-602818Y-3299790D01*
G01X-600024Y-3294456D01*
G01X-597484Y-3291916D01*
G01X-589356Y-3289122D01*
G01X-584022Y-3289122D01*
G01X-576148Y-3291916D01*
G01X-570814Y-3297250D01*
G01X-568274Y-3305124D01*
G01X-568274Y-3312998D01*
G01X-570814Y-3321126D01*
G01X-573608Y-3323666D01*
G01X-578942Y-3326460D01*
G01X-369900Y-3461588D02*
G01X-314274Y-3461588D01*
G01X-369900Y-3461588D02*
G01X-369900Y-3437712D01*
G01X-367360Y-3429838D01*
G01X-364566Y-3427298D01*
G01X-359486Y-3424504D01*
G01X-354152Y-3424504D01*
G01X-348818Y-3427298D01*
G01X-346024Y-3429838D01*
G01X-343484Y-3437712D01*
G01X-343484Y-3461588D01*
G01X-343484Y-3443046D02*
G01X-314274Y-3424504D01*
G01X-369900Y-3396818D02*
G01X-314274Y-3396818D01*
G01X-369900Y-3396818D02*
G01X-369900Y-3362274D01*
G01X-343484Y-3396818D02*
G01X-343484Y-3375482D01*
G01X-314274Y-3396818D02*
G01X-314274Y-3362274D01*
G01X-369900Y-3334588D02*
G01X-314274Y-3334588D01*
G01X-369900Y-3334588D02*
G01X-369900Y-3300044D01*
G01X-343484Y-3334588D02*
G01X-343484Y-3313252D01*
G01X-115900Y-3440506D02*
G01X-60274Y-3461588D01*
G01X-115900Y-3440506D02*
G01X-60274Y-3419170D01*
G01X-78816Y-3453714D02*
G01X-78816Y-3427298D01*
G01X-115900Y-3375482D02*
G01X-113360Y-3383356D01*
G01X-105486Y-3388690D01*
G01X-92024Y-3391484D01*
G01X-84150Y-3391484D01*
G01X-70942Y-3388690D01*
G01X-62814Y-3383356D01*
G01X-60274Y-3375482D01*
G01X-60274Y-3370148D01*
G01X-62814Y-3362274D01*
G01X-70942Y-3356940D01*
G01X-84150Y-3354146D01*
G01X-92024Y-3354146D01*
G01X-105486Y-3356940D01*
G01X-113360Y-3362274D01*
G01X-115900Y-3370148D01*
G01X-115900Y-3375482D01*
G01X138100Y-3440506D02*
G01X193726Y-3461588D01*
G01X138100Y-3440506D02*
G01X193726Y-3419170D01*
G01X175184Y-3453714D02*
G01X175184Y-3427298D01*
G01X148514Y-3391484D02*
G01X145974Y-3386150D01*
G01X138100Y-3378022D01*
G01X193726Y-3378022D01*
G01X392100Y-3440506D02*
G01X447726Y-3461588D01*
G01X392100Y-3440506D02*
G01X447726Y-3419170D01*
G01X429184Y-3453714D02*
G01X429184Y-3427298D01*
G01X405308Y-3388690D02*
G01X402514Y-3388690D01*
G01X397434Y-3386150D01*
G01X394640Y-3383356D01*
G01X392100Y-3378022D01*
G01X392100Y-3367608D01*
G01X394640Y-3362274D01*
G01X397434Y-3359480D01*
G01X402514Y-3356940D01*
G01X407848Y-3356940D01*
G01X413182Y-3359480D01*
G01X421310Y-3364814D01*
G01X447726Y-3391484D01*
G01X447726Y-3354146D01*
G01X646100Y-3440506D02*
G01X701726Y-3461588D01*
G01X646100Y-3440506D02*
G01X701726Y-3419170D01*
G01X683184Y-3453714D02*
G01X683184Y-3427298D01*
G01X646100Y-3386150D02*
G01X646100Y-3356940D01*
G01X667182Y-3372942D01*
G01X667182Y-3364814D01*
G01X669976Y-3359480D01*
G01X672516Y-3356940D01*
G01X680644Y-3354146D01*
G01X685978Y-3354146D01*
G01X693852Y-3356940D01*
G01X699186Y-3362274D01*
G01X701726Y-3370148D01*
G01X701726Y-3378022D01*
G01X699186Y-3386150D01*
G01X696392Y-3388690D01*
G01X691058Y-3391484D01*
G01X900100Y-3440506D02*
G01X955726Y-3461588D01*
G01X900100Y-3440506D02*
G01X955726Y-3419170D01*
G01X937184Y-3453714D02*
G01X937184Y-3427298D01*
G01X900100Y-3364814D02*
G01X937184Y-3391484D01*
G01X937184Y-3351606D01*
G01X900100Y-3364814D02*
G01X955726Y-3364814D01*
G01X1154100Y-3440506D02*
G01X1209726Y-3461588D01*
G01X1154100Y-3440506D02*
G01X1209726Y-3419170D01*
G01X1191184Y-3453714D02*
G01X1191184Y-3427298D01*
G01X1154100Y-3359480D02*
G01X1154100Y-3386150D01*
G01X1177976Y-3388690D01*
G01X1175182Y-3386150D01*
G01X1172642Y-3378022D01*
G01X1172642Y-3370148D01*
G01X1175182Y-3362274D01*
G01X1180516Y-3356940D01*
G01X1188644Y-3354146D01*
G01X1193978Y-3354146D01*
G01X1201852Y-3356940D01*
G01X1207186Y-3362274D01*
G01X1209726Y-3370148D01*
G01X1209726Y-3378022D01*
G01X1207186Y-3386150D01*
G01X1204392Y-3388690D01*
G01X1199058Y-3391484D01*
G01X1408100Y-3440506D02*
G01X1463726Y-3461588D01*
G01X1408100Y-3440506D02*
G01X1463726Y-3419170D01*
G01X1445184Y-3453714D02*
G01X1445184Y-3427298D01*
G01X1415974Y-3359480D02*
G01X1410640Y-3362274D01*
G01X1408100Y-3370148D01*
G01X1408100Y-3375482D01*
G01X1410640Y-3383356D01*
G01X1418514Y-3388690D01*
G01X1431976Y-3391484D01*
G01X1445184Y-3391484D01*
G01X1455852Y-3388690D01*
G01X1461186Y-3383356D01*
G01X1463726Y-3375482D01*
G01X1463726Y-3372942D01*
G01X1461186Y-3364814D01*
G01X1455852Y-3359480D01*
G01X1447978Y-3356940D01*
G01X1445184Y-3356940D01*
G01X1437310Y-3359480D01*
G01X1431976Y-3364814D01*
G01X1429182Y-3372942D01*
G01X1429182Y-3375482D01*
G01X1431976Y-3383356D01*
G01X1437310Y-3388690D01*
G01X1445184Y-3391484D01*
G01X1662100Y-3440506D02*
G01X1717726Y-3461588D01*
G01X1662100Y-3440506D02*
G01X1717726Y-3419170D01*
G01X1699184Y-3453714D02*
G01X1699184Y-3427298D01*
G01X1662100Y-3354146D02*
G01X1717726Y-3380816D01*
G01X1662100Y-3391484D02*
G01X1662100Y-3354146D01*
G01X1916100Y-3429838D02*
G01X1916100Y-3456508D01*
G01X1939976Y-3459048D01*
G01X1937182Y-3456508D01*
G01X1934642Y-3448380D01*
G01X1934642Y-3440506D01*
G01X1937182Y-3432378D01*
G01X1942516Y-3427298D01*
G01X1950644Y-3424504D01*
G01X1955978Y-3424504D01*
G01X1963852Y-3427298D01*
G01X1969186Y-3432378D01*
G01X1971726Y-3440506D01*
G01X1971726Y-3448380D01*
G01X1969186Y-3456508D01*
G01X1966392Y-3459048D01*
G01X1961058Y-3461588D01*
G01X1916100Y-3396818D02*
G01X1971726Y-3375482D01*
G01X1916100Y-3354146D02*
G01X1971726Y-3375482D01*
G01X2170100Y-3461588D02*
G01X2225726Y-3461588D01*
G01X2170100Y-3461588D02*
G01X2170100Y-3437712D01*
G01X2172640Y-3429838D01*
G01X2175434Y-3427298D01*
G01X2180514Y-3424504D01*
G01X2185848Y-3424504D01*
G01X2191182Y-3427298D01*
G01X2193976Y-3429838D01*
G01X2196516Y-3437712D01*
G01X2196516Y-3461588D01*
G01X2196516Y-3443046D02*
G01X2225726Y-3424504D01*
G01X2177974Y-3359480D02*
G01X2172640Y-3364814D01*
G01X2170100Y-3372942D01*
G01X2170100Y-3383356D01*
G01X2172640Y-3391484D01*
G01X2177974Y-3396818D01*
G01X2183308Y-3396818D01*
G01X2188642Y-3394024D01*
G01X2191182Y-3391484D01*
G01X2193976Y-3386150D01*
G01X2199310Y-3370148D01*
G01X2201850Y-3364814D01*
G01X2204644Y-3362274D01*
G01X2209978Y-3359480D01*
G01X2217852Y-3359480D01*
G01X2223186Y-3364814D01*
G01X2225726Y-3372942D01*
G01X2225726Y-3383356D01*
G01X2223186Y-3391484D01*
G01X2217852Y-3396818D01*
G01X2170100Y-3313252D02*
G01X2225726Y-3313252D01*
G01X2170100Y-3331794D02*
G01X2170100Y-3294456D01*
G01X2437308Y-3421964D02*
G01X2431974Y-3424504D01*
G01X2426640Y-3429838D01*
G01X2424100Y-3435172D01*
G01X2424100Y-3445840D01*
G01X2426640Y-3451174D01*
G01X2431974Y-3456508D01*
G01X2437308Y-3459048D01*
G01X2445182Y-3461588D01*
G01X2458644Y-3461588D01*
G01X2466518Y-3459048D01*
G01X2471852Y-3456508D01*
G01X2477186Y-3451174D01*
G01X2479726Y-3445840D01*
G01X2479726Y-3435172D01*
G01X2477186Y-3429838D01*
G01X2471852Y-3424504D01*
G01X2466518Y-3421964D01*
G01X2458644Y-3421964D01*
G01X2458644Y-3435172D02*
G01X2458644Y-3421964D01*
G01X2424100Y-3394278D02*
G01X2479726Y-3394278D01*
G01X2424100Y-3394278D02*
G01X2479726Y-3356940D01*
G01X2424100Y-3356940D02*
G01X2479726Y-3356940D01*
G01X2424100Y-3329254D02*
G01X2479726Y-3329254D01*
G01X2424100Y-3329254D02*
G01X2424100Y-3310712D01*
G01X2426640Y-3302584D01*
G01X2431974Y-3297250D01*
G01X2437308Y-3294710D01*
G01X2445182Y-3291916D01*
G01X2458644Y-3291916D01*
G01X2466518Y-3294710D01*
G01X2471852Y-3297250D01*
G01X2477186Y-3302584D01*
G01X2479726Y-3310712D01*
G01X2479726Y-3329254D01*
G01X2678100Y-3461588D02*
G01X2733726Y-3440506D01*
G01X2678100Y-3419170D02*
G01X2733726Y-3440506D01*
G01X2678100Y-3391484D02*
G01X2733726Y-3391484D01*
G01X2678100Y-3363544D02*
G01X2733726Y-3363544D01*
G01X2678100Y-3363544D02*
G01X2733726Y-3326460D01*
G01X2678100Y-3326460D02*
G01X2733726Y-3326460D01*
G01X-879881Y-2472690D02*
G01X-824255Y-2472690D01*
G01X-879881Y-2472690D02*
G01X-879881Y-2454148D01*
G01X-877341Y-2446274D01*
G01X-872007Y-2440940D01*
G01X-866673Y-2438400D01*
G01X-858799Y-2435606D01*
G01X-845337Y-2435606D01*
G01X-837463Y-2438400D01*
G01X-832129Y-2440940D01*
G01X-826795Y-2446274D01*
G01X-824255Y-2454148D01*
G01X-824255Y-2472690D01*
G01X-869467Y-2407920D02*
G01X-872007Y-2402586D01*
G01X-879881Y-2394458D01*
G01X-824255Y-2394458D01*
G01X-866673Y-2363978D02*
G01X-869467Y-2363978D01*
G01X-874547Y-2361438D01*
G01X-877341Y-2358644D01*
G01X-879881Y-2353310D01*
G01X-879881Y-2342896D01*
G01X-877341Y-2337562D01*
G01X-874547Y-2334768D01*
G01X-869467Y-2332228D01*
G01X-864133Y-2332228D01*
G01X-858799Y-2334768D01*
G01X-850671Y-2340102D01*
G01X-824255Y-2366772D01*
G01X-824255Y-2329434D01*
G01X-625881Y-2431796D02*
G01X-570255Y-2431796D01*
G01X-625881Y-2431796D02*
G01X-625881Y-2413254D01*
G01X-623341Y-2405380D01*
G01X-618007Y-2400046D01*
G01X-612673Y-2397506D01*
G01X-604799Y-2394712D01*
G01X-591337Y-2394712D01*
G01X-583463Y-2397506D01*
G01X-578129Y-2400046D01*
G01X-572795Y-2405380D01*
G01X-570255Y-2413254D01*
G01X-570255Y-2431796D01*
G01X-615467Y-2367026D02*
G01X-618007Y-2361692D01*
G01X-625881Y-2353564D01*
G01X-570255Y-2353564D01*
G01X-615467Y-2325878D02*
G01X-618007Y-2320544D01*
G01X-625881Y-2312416D01*
G01X-570255Y-2312416D01*
G01X-371881Y-2472690D02*
G01X-316255Y-2472690D01*
G01X-371881Y-2472690D02*
G01X-371881Y-2454148D01*
G01X-369341Y-2446274D01*
G01X-364007Y-2440940D01*
G01X-358673Y-2438400D01*
G01X-350799Y-2435606D01*
G01X-337337Y-2435606D01*
G01X-329463Y-2438400D01*
G01X-324129Y-2440940D01*
G01X-318795Y-2446274D01*
G01X-316255Y-2454148D01*
G01X-316255Y-2472690D01*
G01X-361467Y-2407920D02*
G01X-364007Y-2402586D01*
G01X-371881Y-2394458D01*
G01X-316255Y-2394458D01*
G01X-371881Y-2350770D02*
G01X-369341Y-2358644D01*
G01X-361467Y-2363978D01*
G01X-348005Y-2366772D01*
G01X-340131Y-2366772D01*
G01X-326923Y-2363978D01*
G01X-318795Y-2358644D01*
G01X-316255Y-2350770D01*
G01X-316255Y-2345436D01*
G01X-318795Y-2337562D01*
G01X-326923Y-2332228D01*
G01X-340131Y-2329434D01*
G01X-348005Y-2329434D01*
G01X-361467Y-2332228D01*
G01X-369341Y-2337562D01*
G01X-371881Y-2345436D01*
G01X-371881Y-2350770D01*
G01X-117881Y-2415286D02*
G01X-62255Y-2415286D01*
G01X-117881Y-2415286D02*
G01X-117881Y-2396744D01*
G01X-115341Y-2388870D01*
G01X-110007Y-2383536D01*
G01X-104673Y-2380996D01*
G01X-96799Y-2378202D01*
G01X-83337Y-2378202D01*
G01X-75463Y-2380996D01*
G01X-70129Y-2383536D01*
G01X-64795Y-2388870D01*
G01X-62255Y-2396744D01*
G01X-62255Y-2415286D01*
G01X-99339Y-2315972D02*
G01X-91465Y-2318512D01*
G01X-86131Y-2323846D01*
G01X-83337Y-2331974D01*
G01X-83337Y-2334514D01*
G01X-86131Y-2342388D01*
G01X-91465Y-2347722D01*
G01X-99339Y-2350516D01*
G01X-102133Y-2350516D01*
G01X-110007Y-2347722D01*
G01X-115341Y-2342388D01*
G01X-117881Y-2334514D01*
G01X-117881Y-2331974D01*
G01X-115341Y-2323846D01*
G01X-110007Y-2318512D01*
G01X-99339Y-2315972D01*
G01X-86131Y-2315972D01*
G01X-72923Y-2318512D01*
G01X-64795Y-2323846D01*
G01X-62255Y-2331974D01*
G01X-62255Y-2337054D01*
G01X-64795Y-2345182D01*
G01X-70129Y-2347722D01*
G01X136119Y-2419858D02*
G01X191745Y-2419858D01*
G01X136119Y-2419858D02*
G01X136119Y-2401316D01*
G01X138659Y-2393442D01*
G01X143993Y-2388108D01*
G01X149327Y-2385568D01*
G01X157201Y-2382774D01*
G01X170663Y-2382774D01*
G01X178537Y-2385568D01*
G01X183871Y-2388108D01*
G01X189205Y-2393442D01*
G01X191745Y-2401316D01*
G01X191745Y-2419858D01*
G01X136119Y-2341626D02*
G01X138659Y-2349754D01*
G01X143993Y-2352294D01*
G01X149327Y-2352294D01*
G01X154661Y-2349754D01*
G01X157201Y-2344420D01*
G01X159995Y-2333752D01*
G01X162535Y-2325878D01*
G01X167869Y-2320544D01*
G01X173203Y-2317750D01*
G01X181077Y-2317750D01*
G01X186411Y-2320544D01*
G01X189205Y-2323084D01*
G01X191745Y-2331212D01*
G01X191745Y-2341626D01*
G01X189205Y-2349754D01*
G01X186411Y-2352294D01*
G01X181077Y-2355088D01*
G01X173203Y-2355088D01*
G01X167869Y-2352294D01*
G01X162535Y-2346960D01*
G01X159995Y-2339086D01*
G01X157201Y-2328418D01*
G01X154661Y-2323084D01*
G01X149327Y-2320544D01*
G01X143993Y-2320544D01*
G01X138659Y-2323084D01*
G01X136119Y-2331212D01*
G01X136119Y-2341626D01*
G01X390119Y-2419858D02*
G01X445745Y-2419858D01*
G01X390119Y-2419858D02*
G01X390119Y-2401316D01*
G01X392659Y-2393442D01*
G01X397993Y-2388108D01*
G01X403327Y-2385568D01*
G01X411201Y-2382774D01*
G01X424663Y-2382774D01*
G01X432537Y-2385568D01*
G01X437871Y-2388108D01*
G01X443205Y-2393442D01*
G01X445745Y-2401316D01*
G01X445745Y-2419858D01*
G01X390119Y-2317750D02*
G01X445745Y-2344420D01*
G01X390119Y-2355088D02*
G01X390119Y-2317750D01*
G01X644119Y-2415286D02*
G01X699745Y-2415286D01*
G01X644119Y-2415286D02*
G01X644119Y-2396744D01*
G01X646659Y-2388870D01*
G01X651993Y-2383536D01*
G01X657327Y-2380996D01*
G01X665201Y-2378202D01*
G01X678663Y-2378202D01*
G01X686537Y-2380996D01*
G01X691871Y-2383536D01*
G01X697205Y-2388870D01*
G01X699745Y-2396744D01*
G01X699745Y-2415286D01*
G01X651993Y-2318512D02*
G01X646659Y-2321306D01*
G01X644119Y-2329180D01*
G01X644119Y-2334514D01*
G01X646659Y-2342388D01*
G01X654533Y-2347722D01*
G01X667995Y-2350516D01*
G01X681203Y-2350516D01*
G01X691871Y-2347722D01*
G01X697205Y-2342388D01*
G01X699745Y-2334514D01*
G01X699745Y-2331974D01*
G01X697205Y-2323846D01*
G01X691871Y-2318512D01*
G01X683997Y-2315972D01*
G01X681203Y-2315972D01*
G01X673329Y-2318512D01*
G01X667995Y-2323846D01*
G01X665201Y-2331974D01*
G01X665201Y-2334514D01*
G01X667995Y-2342388D01*
G01X673329Y-2347722D01*
G01X681203Y-2350516D01*
G01X898119Y-2419858D02*
G01X953745Y-2419858D01*
G01X898119Y-2419858D02*
G01X898119Y-2401316D01*
G01X900659Y-2393442D01*
G01X905993Y-2388108D01*
G01X911327Y-2385568D01*
G01X919201Y-2382774D01*
G01X932663Y-2382774D01*
G01X940537Y-2385568D01*
G01X945871Y-2388108D01*
G01X951205Y-2393442D01*
G01X953745Y-2401316D01*
G01X953745Y-2419858D01*
G01X898119Y-2323084D02*
G01X898119Y-2349754D01*
G01X921995Y-2352294D01*
G01X919201Y-2349754D01*
G01X916661Y-2341626D01*
G01X916661Y-2333752D01*
G01X919201Y-2325878D01*
G01X924535Y-2320544D01*
G01X932663Y-2317750D01*
G01X937997Y-2317750D01*
G01X945871Y-2320544D01*
G01X951205Y-2325878D01*
G01X953745Y-2333752D01*
G01X953745Y-2341626D01*
G01X951205Y-2349754D01*
G01X948411Y-2352294D01*
G01X943077Y-2355088D01*
G01X1152119Y-2424430D02*
G01X1207745Y-2424430D01*
G01X1152119Y-2424430D02*
G01X1152119Y-2405888D01*
G01X1154659Y-2398014D01*
G01X1159993Y-2392680D01*
G01X1165327Y-2390140D01*
G01X1173201Y-2387346D01*
G01X1186663Y-2387346D01*
G01X1194537Y-2390140D01*
G01X1199871Y-2392680D01*
G01X1205205Y-2398014D01*
G01X1207745Y-2405888D01*
G01X1207745Y-2424430D01*
G01X1152119Y-2332990D02*
G01X1189203Y-2359660D01*
G01X1189203Y-2319782D01*
G01X1152119Y-2332990D02*
G01X1207745Y-2332990D01*
G01X1406119Y-2419858D02*
G01X1461745Y-2419858D01*
G01X1406119Y-2419858D02*
G01X1406119Y-2401316D01*
G01X1408659Y-2393442D01*
G01X1413993Y-2388108D01*
G01X1419327Y-2385568D01*
G01X1427201Y-2382774D01*
G01X1440663Y-2382774D01*
G01X1448537Y-2385568D01*
G01X1453871Y-2388108D01*
G01X1459205Y-2393442D01*
G01X1461745Y-2401316D01*
G01X1461745Y-2419858D01*
G01X1406119Y-2349754D02*
G01X1406119Y-2320544D01*
G01X1427201Y-2336546D01*
G01X1427201Y-2328418D01*
G01X1429995Y-2323084D01*
G01X1432535Y-2320544D01*
G01X1440663Y-2317750D01*
G01X1445997Y-2317750D01*
G01X1453871Y-2320544D01*
G01X1459205Y-2325878D01*
G01X1461745Y-2333752D01*
G01X1461745Y-2341626D01*
G01X1459205Y-2349754D01*
G01X1456411Y-2352294D01*
G01X1451077Y-2355088D01*
G01X1660119Y-2419858D02*
G01X1715745Y-2419858D01*
G01X1660119Y-2419858D02*
G01X1660119Y-2401316D01*
G01X1662659Y-2393442D01*
G01X1667993Y-2388108D01*
G01X1673327Y-2385568D01*
G01X1681201Y-2382774D01*
G01X1694663Y-2382774D01*
G01X1702537Y-2385568D01*
G01X1707871Y-2388108D01*
G01X1713205Y-2393442D01*
G01X1715745Y-2401316D01*
G01X1715745Y-2419858D01*
G01X1673327Y-2352294D02*
G01X1670533Y-2352294D01*
G01X1665453Y-2349754D01*
G01X1662659Y-2346960D01*
G01X1660119Y-2341626D01*
G01X1660119Y-2331212D01*
G01X1662659Y-2325878D01*
G01X1665453Y-2323084D01*
G01X1670533Y-2320544D01*
G01X1675867Y-2320544D01*
G01X1681201Y-2323084D01*
G01X1689329Y-2328418D01*
G01X1715745Y-2355088D01*
G01X1715745Y-2317750D01*
G01X1927327Y-2478532D02*
G01X1921993Y-2481072D01*
G01X1916659Y-2486406D01*
G01X1914119Y-2491740D01*
G01X1914119Y-2502408D01*
G01X1916659Y-2507742D01*
G01X1921993Y-2513076D01*
G01X1927327Y-2515616D01*
G01X1935201Y-2518156D01*
G01X1948663Y-2518156D01*
G01X1956537Y-2515616D01*
G01X1961871Y-2513076D01*
G01X1967205Y-2507742D01*
G01X1969745Y-2502408D01*
G01X1969745Y-2491740D01*
G01X1967205Y-2486406D01*
G01X1961871Y-2481072D01*
G01X1956537Y-2478532D01*
G01X1948663Y-2478532D01*
G01X1948663Y-2491740D02*
G01X1948663Y-2478532D01*
G01X1914119Y-2450846D02*
G01X1969745Y-2450846D01*
G01X1914119Y-2450846D02*
G01X1969745Y-2413508D01*
G01X1914119Y-2413508D02*
G01X1969745Y-2413508D01*
G01X1914119Y-2385822D02*
G01X1969745Y-2385822D01*
G01X1914119Y-2385822D02*
G01X1914119Y-2367280D01*
G01X1916659Y-2359152D01*
G01X1921993Y-2353818D01*
G01X1927327Y-2351278D01*
G01X1935201Y-2348484D01*
G01X1948663Y-2348484D01*
G01X1956537Y-2351278D01*
G01X1961871Y-2353818D01*
G01X1967205Y-2359152D01*
G01X1969745Y-2367280D01*
G01X1969745Y-2385822D01*
G01X2168119Y-2513584D02*
G01X2223745Y-2513584D01*
G01X2168119Y-2513584D02*
G01X2168119Y-2489708D01*
G01X2170659Y-2481834D01*
G01X2173453Y-2479294D01*
G01X2178533Y-2476500D01*
G01X2183867Y-2476500D01*
G01X2189201Y-2479294D01*
G01X2191995Y-2481834D01*
G01X2194535Y-2489708D01*
G01X2194535Y-2513584D01*
G01X2194535Y-2495042D02*
G01X2223745Y-2476500D01*
G01X2175993Y-2411476D02*
G01X2170659Y-2416810D01*
G01X2168119Y-2424938D01*
G01X2168119Y-2435352D01*
G01X2170659Y-2443480D01*
G01X2175993Y-2448814D01*
G01X2181327Y-2448814D01*
G01X2186661Y-2446020D01*
G01X2189201Y-2443480D01*
G01X2191995Y-2438146D01*
G01X2197329Y-2422144D01*
G01X2199869Y-2416810D01*
G01X2202663Y-2414270D01*
G01X2207997Y-2411476D01*
G01X2215871Y-2411476D01*
G01X2221205Y-2416810D01*
G01X2223745Y-2424938D01*
G01X2223745Y-2435352D01*
G01X2221205Y-2443480D01*
G01X2215871Y-2448814D01*
G01X2168119Y-2365248D02*
G01X2223745Y-2365248D01*
G01X2168119Y-2383790D02*
G01X2168119Y-2346452D01*
G01X2422119Y-2513584D02*
G01X2477745Y-2513584D01*
G01X2422119Y-2513584D02*
G01X2422119Y-2489708D01*
G01X2424659Y-2481834D01*
G01X2427453Y-2479294D01*
G01X2432533Y-2476500D01*
G01X2437867Y-2476500D01*
G01X2443201Y-2479294D01*
G01X2445995Y-2481834D01*
G01X2448535Y-2489708D01*
G01X2448535Y-2513584D01*
G01X2448535Y-2495042D02*
G01X2477745Y-2476500D01*
G01X2422119Y-2448814D02*
G01X2477745Y-2411476D01*
G01X2422119Y-2411476D02*
G01X2477745Y-2448814D01*
G01X2422119Y-2383790D02*
G01X2477745Y-2383790D01*
G01X2422119Y-2383790D02*
G01X2422119Y-2365248D01*
G01X2424659Y-2357120D01*
G01X2429993Y-2351786D01*
G01X2435327Y-2349246D01*
G01X2443201Y-2346452D01*
G01X2456663Y-2346452D01*
G01X2464537Y-2349246D01*
G01X2469871Y-2351786D01*
G01X2475205Y-2357120D01*
G01X2477745Y-2365248D01*
G01X2477745Y-2383790D01*
G01X2676119Y-2495042D02*
G01X2731745Y-2495042D01*
G01X2676119Y-2513584D02*
G01X2676119Y-2476500D01*
G01X2676119Y-2448814D02*
G01X2731745Y-2411476D01*
G01X2676119Y-2411476D02*
G01X2731745Y-2448814D01*
G01X2676119Y-2383790D02*
G01X2731745Y-2383790D01*
G01X2676119Y-2383790D02*
G01X2676119Y-2365248D01*
G01X2678659Y-2357120D01*
G01X2683993Y-2351786D01*
G01X2689327Y-2349246D01*
G01X2697201Y-2346452D01*
G01X2710663Y-2346452D01*
G01X2718537Y-2349246D01*
G01X2723871Y-2351786D01*
G01X2729205Y-2357120D01*
G01X2731745Y-2365248D01*
G01X2731745Y-2383790D01*
G54D10*
G01X-1384280Y-1859029D02*
G01X-1384280Y-1905511D01*
G01X-1381232Y-1914655D01*
G01X-1374882Y-1921005D01*
G01X-1365738Y-1924053D01*
G01X-1359388Y-1924053D01*
G01X-1350244Y-1921005D01*
G01X-1344148Y-1914655D01*
G01X-1340846Y-1905511D01*
G01X-1340846Y-1859029D01*
G01X-1310620Y-1871475D02*
G01X-1304524Y-1868173D01*
G01X-1295380Y-1859029D01*
G01X-1295380Y-1924053D01*
G36*
G01X6251787Y-1108287D02*
G01X6256252Y-1108441D01*
G01X6260562Y-1108441D01*
G01X6260716Y-1107363D01*
G01X6260870Y-1071188D01*
G01X6260754Y-1044787D01*
G01X6260408Y-1035782D01*
G01X6257483Y-1035474D01*
G01X6255020Y-1035474D01*
G01X6253635Y-1037783D01*
G01X6252095Y-1039938D01*
G01X6251172Y-1041016D01*
G01X6247323Y-1044864D01*
G01X6245168Y-1046712D01*
G01X6244398Y-1047327D01*
G01X6243629Y-1047789D01*
G01X6242859Y-1048405D01*
G01X6241781Y-1049175D01*
G01X6239318Y-1050714D01*
G01X6235162Y-1053023D01*
G01X6234084Y-1053947D01*
G01X6233776Y-1058411D01*
G01X6233776Y-1062259D01*
G01X6234700Y-1062105D01*
G01X6236085Y-1061644D01*
G01X6240396Y-1059489D01*
G01X6241781Y-1058719D01*
G01X6243013Y-1057949D01*
G01X6244090Y-1057333D01*
G01X6245322Y-1056564D01*
G01X6246707Y-1055640D01*
G01X6247785Y-1054870D01*
G01X6250248Y-1053023D01*
G01X6251018Y-1052407D01*
G01X6251287Y-1052292D01*
G01X6251479Y-1052561D01*
G01X6251633Y-1080578D01*
G01X6251787Y-1108287D01*
G37*
G01X6210301Y-888747D02*
G01X6210301Y-953771D01*
G01X6210301Y-888747D02*
G01X6238241Y-888747D01*
G01X6247385Y-891795D01*
G01X6250433Y-894843D01*
G01X6253735Y-901193D01*
G01X6253735Y-907289D01*
G01X6250433Y-913385D01*
G01X6247385Y-916433D01*
G01X6238241Y-919735D01*
G01X6210301Y-919735D02*
G01X6238241Y-919735D01*
G01X6247385Y-922783D01*
G01X6250433Y-925831D01*
G01X6253735Y-931927D01*
G01X6253735Y-941325D01*
G01X6250433Y-947421D01*
G01X6247385Y-950723D01*
G01X6238241Y-953771D01*
G01X6210301Y-953771D01*
G01X6283961Y-888747D02*
G01X6283961Y-953771D01*
G01X6338825Y-888747D02*
G01X6314187Y-953771D01*
G01X6338825Y-888747D02*
G01X6363717Y-953771D01*
G01X6323331Y-931927D02*
G01X6354319Y-931927D01*
G01X6437123Y-897891D02*
G01X6431027Y-891795D01*
G01X6421629Y-888747D01*
G01X6409183Y-888747D01*
G01X6400039Y-891795D01*
G01X6393943Y-897891D01*
G01X6393943Y-904241D01*
G01X6396991Y-910337D01*
G01X6400039Y-913385D01*
G01X6406135Y-916433D01*
G01X6424677Y-922783D01*
G01X6431027Y-925831D01*
G01X6434075Y-928879D01*
G01X6437123Y-935229D01*
G01X6437123Y-944373D01*
G01X6431027Y-950723D01*
G01X6421629Y-953771D01*
G01X6409183Y-953771D01*
G01X6400039Y-950723D01*
G01X6393943Y-944373D01*
G01X6467349Y-901193D02*
G01X6473445Y-897891D01*
G01X6482589Y-888747D01*
G01X6482589Y-953771D01*
G01X9716502Y-2535160D02*
G01X9713454Y-2528810D01*
G01X9707104Y-2522714D01*
G01X9701008Y-2519666D01*
G01X9688562Y-2519666D01*
G01X9682466Y-2522714D01*
G01X9676116Y-2528810D01*
G01X9673068Y-2535160D01*
G01X9670020Y-2544304D01*
G01X9670020Y-2559798D01*
G01X9673068Y-2569196D01*
G01X9676116Y-2575292D01*
G01X9682466Y-2581642D01*
G01X9688562Y-2584690D01*
G01X9701008Y-2584690D01*
G01X9707104Y-2581642D01*
G01X9713454Y-2575292D01*
G01X9716502Y-2569196D01*
G01X9749776Y-2535160D02*
G01X9749776Y-2532112D01*
G01X9752824Y-2525762D01*
G01X9755872Y-2522714D01*
G01X9761968Y-2519666D01*
G01X9774414Y-2519666D01*
G01X9780764Y-2522714D01*
G01X9783812Y-2525762D01*
G01X9786860Y-2532112D01*
G01X9786860Y-2538208D01*
G01X9783812Y-2544304D01*
G01X9777462Y-2553702D01*
G01X9746728Y-2584690D01*
G01X9789908Y-2584690D01*
G01X11850102Y-2509760D02*
G01X11847054Y-2503410D01*
G01X11840704Y-2497314D01*
G01X11834608Y-2494266D01*
G01X11822162Y-2494266D01*
G01X11816066Y-2497314D01*
G01X11809716Y-2503410D01*
G01X11806668Y-2509760D01*
G01X11803620Y-2518904D01*
G01X11803620Y-2534398D01*
G01X11806668Y-2543796D01*
G01X11809716Y-2549892D01*
G01X11816066Y-2556242D01*
G01X11822162Y-2559290D01*
G01X11834608Y-2559290D01*
G01X11840704Y-2556242D01*
G01X11847054Y-2549892D01*
G01X11850102Y-2543796D01*
G01X11886424Y-2494266D02*
G01X11920460Y-2494266D01*
G01X11901918Y-2518904D01*
G01X11911062Y-2518904D01*
G01X11917412Y-2521952D01*
G01X11920460Y-2525254D01*
G01X11923508Y-2534398D01*
G01X11923508Y-2540748D01*
G01X11920460Y-2549892D01*
G01X11914364Y-2556242D01*
G01X11904966Y-2559290D01*
G01X11895568Y-2559290D01*
G01X11886424Y-2556242D01*
G01X11883376Y-2552940D01*
G01X11880328Y-2546844D01*
G01X14059902Y-2497060D02*
G01X14056854Y-2490710D01*
G01X14050504Y-2484614D01*
G01X14044408Y-2481566D01*
G01X14031962Y-2481566D01*
G01X14025866Y-2484614D01*
G01X14019516Y-2490710D01*
G01X14016468Y-2497060D01*
G01X14013420Y-2506204D01*
G01X14013420Y-2521698D01*
G01X14016468Y-2531096D01*
G01X14019516Y-2537192D01*
G01X14025866Y-2543542D01*
G01X14031962Y-2546590D01*
G01X14044408Y-2546590D01*
G01X14050504Y-2543542D01*
G01X14056854Y-2537192D01*
G01X14059902Y-2531096D01*
G01X14120862Y-2481566D02*
G01X14090128Y-2524746D01*
G01X14136356Y-2524746D01*
G01X14120862Y-2481566D02*
G01X14120862Y-2546590D01*
G01X16434802Y-2471660D02*
G01X16431754Y-2465310D01*
G01X16425404Y-2459214D01*
G01X16419308Y-2456166D01*
G01X16406862Y-2456166D01*
G01X16400766Y-2459214D01*
G01X16394416Y-2465310D01*
G01X16391368Y-2471660D01*
G01X16388320Y-2480804D01*
G01X16388320Y-2496298D01*
G01X16391368Y-2505696D01*
G01X16394416Y-2511792D01*
G01X16400766Y-2518142D01*
G01X16406862Y-2521190D01*
G01X16419308Y-2521190D01*
G01X16425404Y-2518142D01*
G01X16431754Y-2511792D01*
G01X16434802Y-2505696D01*
G01X16502112Y-2456166D02*
G01X16471124Y-2456166D01*
G01X16468076Y-2483852D01*
G01X16471124Y-2480804D01*
G01X16480268Y-2477756D01*
G01X16489666Y-2477756D01*
G01X16499064Y-2480804D01*
G01X16505160Y-2487154D01*
G01X16508208Y-2496298D01*
G01X16508208Y-2502648D01*
G01X16505160Y-2511792D01*
G01X16499064Y-2518142D01*
G01X16489666Y-2521190D01*
G01X16480268Y-2521190D01*
G01X16471124Y-2518142D01*
G01X16468076Y-2514840D01*
G01X16465028Y-2508744D01*
G01X13942207Y513944D02*
G01X13942207Y464414D01*
G01X13939159Y455270D01*
G01X13936111Y451968D01*
G01X13929761Y448920D01*
G01X13923665Y448920D01*
G01X13917315Y451968D01*
G01X13914267Y455270D01*
G01X13911219Y464414D01*
G01X13911219Y470764D01*
G01X13972433Y501498D02*
G01X13978529Y504800D01*
G01X13987673Y513944D01*
G01X13987673Y448920D01*
G01X7159320Y-3437966D02*
G01X7159320Y-3502990D01*
G01X7159320Y-3437966D02*
G01X7187260Y-3437966D01*
G01X7196404Y-3441014D01*
G01X7199452Y-3444062D01*
G01X7202754Y-3450412D01*
G01X7202754Y-3456508D01*
G01X7199452Y-3462604D01*
G01X7196404Y-3465652D01*
G01X7187260Y-3468954D01*
G01X7159320Y-3468954D01*
G01X7180910Y-3468954D02*
G01X7202754Y-3502990D01*
G01X7270064Y-3447110D02*
G01X7267016Y-3441014D01*
G01X7257618Y-3437966D01*
G01X7251522Y-3437966D01*
G01X7242124Y-3441014D01*
G01X7236028Y-3450412D01*
G01X7232980Y-3465652D01*
G01X7232980Y-3481146D01*
G01X7236028Y-3493592D01*
G01X7242124Y-3499942D01*
G01X7251522Y-3502990D01*
G01X7254570Y-3502990D01*
G01X7263714Y-3499942D01*
G01X7270064Y-3493592D01*
G01X7273112Y-3484448D01*
G01X7273112Y-3481146D01*
G01X7270064Y-3472002D01*
G01X7263714Y-3465652D01*
G01X7254570Y-3462604D01*
G01X7251522Y-3462604D01*
G01X7242124Y-3465652D01*
G01X7236028Y-3472002D01*
G01X7232980Y-3481146D01*
G54D12*
G01X17000220Y-1678940D02*
G01X17186910Y-1678940D01*
G01X17000220Y-1678940D02*
G01X17186910Y-1607820D01*
G01X17000220Y-1536700D02*
G01X17186910Y-1607820D01*
G01X17000220Y-1536700D02*
G01X17186910Y-1536700D01*
G01X17000220Y-1473708D02*
G01X17009110Y-1464818D01*
G01X17000220Y-1455928D01*
G01X16991330Y-1464818D01*
G01X17000220Y-1473708D01*
G01X17062450Y-1464818D02*
G01X17186910Y-1464818D01*
G01X17089120Y-1286256D02*
G01X17071340Y-1304036D01*
G01X17062450Y-1321816D01*
G01X17062450Y-1348486D01*
G01X17071340Y-1366266D01*
G01X17089120Y-1384046D01*
G01X17115790Y-1392936D01*
G01X17133570Y-1392936D01*
G01X17160240Y-1384046D01*
G01X17178020Y-1366266D01*
G01X17186910Y-1348486D01*
G01X17186910Y-1321816D01*
G01X17178020Y-1304036D01*
G01X17160240Y-1286256D01*
G01X17062450Y-1223264D02*
G01X17186910Y-1223264D01*
G01X17115790Y-1223264D02*
G01X17089120Y-1214374D01*
G01X17071340Y-1196594D01*
G01X17062450Y-1178814D01*
G01X17062450Y-1152144D01*
G01X17062450Y-1044702D02*
G01X17071340Y-1062482D01*
G01X17089120Y-1080262D01*
G01X17115790Y-1089152D01*
G01X17133570Y-1089152D01*
G01X17160240Y-1080262D01*
G01X17178020Y-1062482D01*
G01X17186910Y-1044702D01*
G01X17186910Y-1018032D01*
G01X17178020Y-1000252D01*
G01X17160240Y-982472D01*
G01X17133570Y-973582D01*
G01X17115790Y-973582D01*
G01X17089120Y-982472D01*
G01X17071340Y-1000252D01*
G01X17062450Y-1018032D01*
G01X17062450Y-1044702D01*
G01X17026890Y-786130D02*
G01X17009110Y-803910D01*
G01X17000220Y-830580D01*
G01X17000220Y-866140D01*
G01X17009110Y-892810D01*
G01X17026890Y-910590D01*
G01X17044670Y-910590D01*
G01X17062450Y-901700D01*
G01X17071340Y-892810D01*
G01X17080230Y-875030D01*
G01X17098010Y-821690D01*
G01X17106900Y-803910D01*
G01X17115790Y-795020D01*
G01X17133570Y-786130D01*
G01X17160240Y-786130D01*
G01X17178020Y-803910D01*
G01X17186910Y-830580D01*
G01X17186910Y-866140D01*
G01X17178020Y-892810D01*
G01X17160240Y-910590D01*
G01X17000220Y-723138D02*
G01X17186910Y-723138D01*
G01X17000220Y-723138D02*
G01X17000220Y-660908D01*
G01X17009110Y-634238D01*
G01X17026890Y-616458D01*
G01X17044670Y-607568D01*
G01X17071340Y-598678D01*
G01X17115790Y-598678D01*
G01X17142460Y-607568D01*
G01X17160240Y-616458D01*
G01X17178020Y-634238D01*
G01X17186910Y-660908D01*
G01X17186910Y-723138D01*
G54D10*
G01X15819120Y-130566D02*
G01X15819120Y-177048D01*
G01X15822168Y-186192D01*
G01X15828518Y-192542D01*
G01X15837662Y-195590D01*
G01X15844012Y-195590D01*
G01X15853156Y-192542D01*
G01X15859252Y-186192D01*
G01X15862554Y-177048D01*
G01X15862554Y-130566D01*
G01X15923514Y-130566D02*
G01X15892780Y-173746D01*
G01X15939008Y-173746D01*
G01X15923514Y-130566D02*
G01X15923514Y-195590D01*
G01X4861687Y-3022600D02*
G01X4908169Y-3022600D01*
G01X4917313Y-3019552D01*
G01X4923663Y-3013202D01*
G01X4926711Y-3004058D01*
G01X4926711Y-2997708D01*
G01X4923663Y-2988564D01*
G01X4917313Y-2982468D01*
G01X4908169Y-2979166D01*
G01X4861687Y-2979166D01*
G01X4861687Y-2911856D02*
G01X4861687Y-2942844D01*
G01X4889373Y-2945892D01*
G01X4886325Y-2942844D01*
G01X4883277Y-2933700D01*
G01X4883277Y-2924302D01*
G01X4886325Y-2914904D01*
G01X4892675Y-2908808D01*
G01X4901819Y-2905760D01*
G01X4908169Y-2905760D01*
G01X4917313Y-2908808D01*
G01X4923663Y-2914904D01*
G01X4926711Y-2924302D01*
G01X4926711Y-2933700D01*
G01X4923663Y-2942844D01*
G01X4920361Y-2945892D01*
G01X4914265Y-2948940D01*
G04 Text End*

G04 PolygonModel Start*
G54D13*
G01X10903702Y206301D02*
G01X10895493Y206301D01*
G01X11028721Y206301D02*
G01X11020486Y206301D01*
G01X11153714Y206301D02*
G01X11145505Y206301D01*
G01X11278707Y206301D02*
G01X11270498Y206301D01*
G01X10778708Y206301D02*
G01X10677101Y206301D01*
G01X10677101Y206301D02*
G01X10677101Y696298D01*
G01X10677101Y696298D02*
G01X11497099Y696298D01*
G01X11497099Y696298D02*
G01X11497099Y206301D01*
G01X11497099Y206301D02*
G01X11395492Y206301D01*
G01X268300Y-7102500D02*
G01X268300Y-6602501D01*
G01X268300Y-6602501D02*
G01X468300Y-6602501D01*
G01X468300Y-6602501D02*
G01X468300Y-7102500D01*
G01X468300Y-7102500D02*
G01X268300Y-7102500D01*
G01X368300Y-7163533D02*
G01X368300Y-7102500D01*
G01X368300Y-6602501D02*
G01X368300Y-6538752D01*
G01X4078300Y-7089800D02*
G01X4078300Y-6589801D01*
G01X4078300Y-6589801D02*
G01X4278300Y-6589801D01*
G01X4278300Y-6589801D02*
G01X4278300Y-7089800D01*
G01X4278300Y-7089800D02*
G01X4078300Y-7089800D01*
G01X4178300Y-7150833D02*
G01X4178300Y-7089800D01*
G01X4178300Y-6589801D02*
G01X4178300Y-6526052D01*
G01X12587300Y-7026300D02*
G01X12587300Y-6526301D01*
G01X12587300Y-6526301D02*
G01X12787300Y-6526301D01*
G01X12787300Y-6526301D02*
G01X12787300Y-7026300D01*
G01X12787300Y-7026300D02*
G01X12587300Y-7026300D01*
G01X12687300Y-7087333D02*
G01X12687300Y-7026300D01*
G01X12687300Y-6526301D02*
G01X12687300Y-6462552D01*
G01X8282000Y-7026300D02*
G01X8282000Y-6526301D01*
G01X8282000Y-6526301D02*
G01X8482000Y-6526301D01*
G01X8482000Y-6526301D02*
G01X8482000Y-7026300D01*
G01X8482000Y-7026300D02*
G01X8282000Y-7026300D01*
G01X8382000Y-7087333D02*
G01X8382000Y-7026300D01*
G01X8382000Y-6526301D02*
G01X8382000Y-6462552D01*
G01X15622600Y-7077100D02*
G01X15622600Y-6577101D01*
G01X15622600Y-6577101D02*
G01X15822600Y-6577101D01*
G01X15822600Y-6577101D02*
G01X15822600Y-7077100D01*
G01X15822600Y-7077100D02*
G01X15622600Y-7077100D01*
G01X15722600Y-7138133D02*
G01X15722600Y-7077100D01*
G01X15722600Y-6577101D02*
G01X15722600Y-6513352D01*
G01X1129104Y-6136401D02*
G01X2249101Y-6136401D01*
G01X2249101Y-7376399D01*
G01X1129104Y-7376399D01*
G01X1129104Y-6136401D01*
G01X5053404Y-6212601D02*
G01X6173401Y-6212601D01*
G01X6173401Y-7452599D01*
G01X5053404Y-7452599D01*
G01X5053404Y-6212601D01*
G01X13778304Y-6149101D02*
G01X14898301Y-6149101D01*
G01X14898301Y-7389099D01*
G01X13778304Y-7389099D01*
G01X13778304Y-6149101D01*
G01X9092004Y-6212601D02*
G01X10212001Y-6212601D01*
G01X10212001Y-7452599D01*
G01X9092004Y-7452599D01*
G01X9092004Y-6212601D01*
G01X16483404Y-6111001D02*
G01X17603401Y-6111001D01*
G01X17603401Y-7350999D01*
G01X16483404Y-7350999D01*
G01X16483404Y-6111001D01*
G54D14*
G01X1244559Y-3759139D02*
G01X1308059Y-3695639D01*
G01X1308059Y-3695639D02*
G01X1371559Y-3759139D01*
G01X-914425Y-3505152D02*
G01X-977925Y-3568652D01*
G01X-977925Y-3568652D02*
G01X-977925Y-3695652D01*
G01X-977925Y-3695652D02*
G01X-914425Y-3759152D01*
G01X-660425Y-3505152D02*
G01X-723925Y-3568652D01*
G01X-723925Y-3568652D02*
G01X-787425Y-3505152D01*
G01X-406425Y-3505152D02*
G01X-469925Y-3568652D01*
G01X-469925Y-3568652D02*
G01X-533425Y-3505152D01*
G01X-152471Y-3505152D02*
G01X-215948Y-3568652D01*
G01X-215948Y-3568652D02*
G01X-279448Y-3505152D01*
G01X101524Y-3505152D02*
G01X38024Y-3568652D01*
G01X38024Y-3568652D02*
G01X-25476Y-3505152D01*
G01X355524Y-3505152D02*
G01X292024Y-3568652D01*
G01X292024Y-3568652D02*
G01X228524Y-3505152D01*
G01X609524Y-3505152D02*
G01X546024Y-3568652D01*
G01X546024Y-3568652D02*
G01X482524Y-3505152D01*
G01X863524Y-3505152D02*
G01X800024Y-3568652D01*
G01X800024Y-3568652D02*
G01X736524Y-3505152D01*
G01X1117524Y-3505152D02*
G01X1054024Y-3568652D01*
G01X1054024Y-3568652D02*
G01X990524Y-3505152D01*
G01X1371524Y-3505152D02*
G01X1308024Y-3568652D01*
G01X1308024Y-3568652D02*
G01X1244524Y-3505152D01*
G01X1625524Y-3505152D02*
G01X1562024Y-3568652D01*
G01X1562024Y-3568652D02*
G01X1498524Y-3505152D01*
G01X1879524Y-3505152D02*
G01X1816024Y-3568652D01*
G01X1816024Y-3568652D02*
G01X1752524Y-3505152D01*
G01X2133552Y-3505152D02*
G01X2070029Y-3568652D01*
G01X2070029Y-3568652D02*
G01X2006524Y-3505152D01*
G01X2387559Y-3505152D02*
G01X2324059Y-3568652D01*
G01X2324059Y-3568652D02*
G01X2260559Y-3505152D01*
G01X2641559Y-3505152D02*
G01X2578059Y-3568652D01*
G01X2578059Y-3568652D02*
G01X2514559Y-3505152D01*
G01X2768559Y-3759152D02*
G01X2832059Y-3695652D01*
G01X2832059Y-3695652D02*
G01X2832059Y-3568652D01*
G01X2832059Y-3568652D02*
G01X2768559Y-3505152D01*
G01X2514559Y-3759152D02*
G01X2578059Y-3695652D01*
G01X2578059Y-3695652D02*
G01X2641559Y-3759152D01*
G01X2260559Y-3759152D02*
G01X2324059Y-3695652D01*
G01X2324059Y-3695652D02*
G01X2387559Y-3759152D01*
G01X2006524Y-3759152D02*
G01X2070029Y-3695652D01*
G01X2070029Y-3695652D02*
G01X2133552Y-3759152D01*
G01X-279448Y-3759152D02*
G01X-215948Y-3695652D01*
G01X-215948Y-3695652D02*
G01X-152471Y-3759152D01*
G01X-787425Y-3759152D02*
G01X-723925Y-3695652D01*
G01X-723925Y-3695652D02*
G01X-660425Y-3759152D01*
G01X-533425Y-3759152D02*
G01X-469925Y-3695652D01*
G01X-469925Y-3695652D02*
G01X-406425Y-3759152D01*
G01X-25476Y-3759152D02*
G01X38024Y-3695652D01*
G01X38024Y-3695652D02*
G01X101524Y-3759152D01*
G01X228524Y-3759152D02*
G01X292024Y-3695652D01*
G01X292024Y-3695652D02*
G01X355524Y-3759152D01*
G01X482524Y-3759152D02*
G01X546024Y-3695652D01*
G01X546024Y-3695652D02*
G01X609524Y-3759152D01*
G01X736524Y-3759152D02*
G01X800024Y-3695652D01*
G01X800024Y-3695652D02*
G01X863524Y-3759152D01*
G01X990524Y-3759152D02*
G01X1054024Y-3695652D01*
G01X1054024Y-3695652D02*
G01X1117524Y-3759152D01*
G01X1498524Y-3759152D02*
G01X1562024Y-3695652D01*
G01X1562024Y-3695652D02*
G01X1625524Y-3759152D01*
G01X1752524Y-3759152D02*
G01X1816024Y-3695652D01*
G01X1816024Y-3695652D02*
G01X1879524Y-3759152D01*
G01X2006524Y-3759152D02*
G01X2070029Y-3695652D01*
G01X2070029Y-3695652D02*
G01X2133552Y-3759152D01*
G01X2133552Y-3759152D02*
G01X2260559Y-3759152D01*
G01X2260559Y-3759152D02*
G01X2324059Y-3695652D01*
G01X2324059Y-3695652D02*
G01X2387559Y-3759152D01*
G01X2387559Y-3759152D02*
G01X2514559Y-3759152D01*
G01X2514559Y-3759152D02*
G01X2578059Y-3695652D01*
G01X2578059Y-3695652D02*
G01X2641559Y-3759152D01*
G01X2641559Y-3759152D02*
G01X2768559Y-3759152D01*
G01X2768559Y-3759152D02*
G01X2832059Y-3695652D01*
G01X2832059Y-3695652D02*
G01X2832059Y-3568652D01*
G01X2832059Y-3568652D02*
G01X2768559Y-3505152D01*
G01X2768559Y-3505152D02*
G01X2641559Y-3505152D01*
G01X2641559Y-3505152D02*
G01X2578059Y-3568652D01*
G01X2578059Y-3568652D02*
G01X2514559Y-3505152D01*
G01X2514559Y-3505152D02*
G01X2387559Y-3505152D01*
G01X2387559Y-3505152D02*
G01X2324059Y-3568652D01*
G01X2324059Y-3568652D02*
G01X2260559Y-3505152D01*
G01X2260559Y-3505152D02*
G01X2133552Y-3505152D01*
G01X2133552Y-3505152D02*
G01X2070029Y-3568652D01*
G01X2070029Y-3568652D02*
G01X2006524Y-3505152D01*
G01X2006524Y-3505152D02*
G01X1879524Y-3505152D01*
G01X1879524Y-3505152D02*
G01X1816024Y-3568652D01*
G01X1816024Y-3568652D02*
G01X1752524Y-3505152D01*
G01X1752524Y-3505152D02*
G01X1625524Y-3505152D01*
G01X1625524Y-3505152D02*
G01X1562024Y-3568652D01*
G01X1562024Y-3568652D02*
G01X1498524Y-3505152D01*
G01X1498524Y-3505152D02*
G01X1371524Y-3505152D01*
G01X1371524Y-3505152D02*
G01X1308024Y-3568652D01*
G01X1308024Y-3568652D02*
G01X1244524Y-3505152D01*
G01X1244524Y-3505152D02*
G01X1117524Y-3505152D01*
G01X1117524Y-3505152D02*
G01X1054024Y-3568652D01*
G01X1054024Y-3568652D02*
G01X990524Y-3505152D01*
G01X990524Y-3505152D02*
G01X863524Y-3505152D01*
G01X863524Y-3505152D02*
G01X800024Y-3568652D01*
G01X800024Y-3568652D02*
G01X736524Y-3505152D01*
G01X736524Y-3505152D02*
G01X609524Y-3505152D01*
G01X609524Y-3505152D02*
G01X546024Y-3568652D01*
G01X546024Y-3568652D02*
G01X482524Y-3505152D01*
G01X482524Y-3505152D02*
G01X355524Y-3505152D01*
G01X355524Y-3505152D02*
G01X292024Y-3568652D01*
G01X292024Y-3568652D02*
G01X228524Y-3505152D01*
G01X228524Y-3505152D02*
G01X101524Y-3505152D01*
G01X101524Y-3505152D02*
G01X38024Y-3568652D01*
G01X38024Y-3568652D02*
G01X-25476Y-3505152D01*
G01X-25476Y-3505152D02*
G01X-152471Y-3505152D01*
G01X-152471Y-3505152D02*
G01X-215948Y-3568652D01*
G01X-215948Y-3568652D02*
G01X-279448Y-3505152D01*
G01X-279448Y-3505152D02*
G01X-406425Y-3505152D01*
G01X-406425Y-3505152D02*
G01X-469925Y-3568652D01*
G01X-469925Y-3568652D02*
G01X-533425Y-3505152D01*
G01X-533425Y-3505152D02*
G01X-660425Y-3505152D01*
G01X-660425Y-3505152D02*
G01X-723925Y-3568652D01*
G01X-723925Y-3568652D02*
G01X-787425Y-3505152D01*
G01X-787425Y-3505152D02*
G01X-914425Y-3505152D01*
G01X-914425Y-3505152D02*
G01X-977925Y-3568652D01*
G01X-977925Y-3568652D02*
G01X-977925Y-3695652D01*
G01X-977925Y-3695652D02*
G01X-914425Y-3759152D01*
G01X609625Y-1981243D02*
G01X546125Y-2044743D01*
G01X546125Y-2044743D02*
G01X482625Y-1981243D01*
G01X-152334Y-1981233D02*
G01X-215836Y-2044733D01*
G01X-215836Y-2044733D02*
G01X-279362Y-1981233D01*
G01X-279362Y-1981233D02*
G01X-406375Y-1981233D01*
G01X-406375Y-1981233D02*
G01X-469875Y-2044733D01*
G01X-469875Y-2044733D02*
G01X-533375Y-1981233D01*
G01X-533375Y-1981233D02*
G01X-660375Y-1981233D01*
G01X-660375Y-1981233D02*
G01X-723875Y-2044733D01*
G01X-723875Y-2044733D02*
G01X-787375Y-1981233D01*
G01X-787375Y-1981233D02*
G01X-914375Y-1981233D01*
G01X-914375Y-1981233D02*
G01X-977875Y-2044733D01*
G01X-977875Y-2044733D02*
G01X-977875Y-2171733D01*
G01X-977875Y-2171733D02*
G01X-914375Y-2235233D01*
G01X-914375Y-2235233D02*
G01X-787375Y-2235233D01*
G01X-787375Y-2235233D02*
G01X-723875Y-2171733D01*
G01X-723875Y-2171733D02*
G01X-660375Y-2235233D01*
G01X-660375Y-2235233D02*
G01X-533375Y-2235233D01*
G01X-533375Y-2235233D02*
G01X-469875Y-2171733D01*
G01X-469875Y-2171733D02*
G01X-406375Y-2235233D01*
G01X-406375Y-2235233D02*
G01X-279362Y-2235233D01*
G01X-279362Y-2235233D02*
G01X-215836Y-2171733D01*
G01X-215836Y-2171733D02*
G01X-152334Y-2235233D01*
G01X-152334Y-2235233D02*
G01X-25334Y-2235233D01*
G01X-25334Y-2235233D02*
G01X38166Y-2171733D01*
G01X38166Y-2171733D02*
G01X101666Y-2235233D01*
G01X101666Y-2235233D02*
G01X228666Y-2235233D01*
G01X228666Y-2235233D02*
G01X292166Y-2171733D01*
G01X292166Y-2171733D02*
G01X355666Y-2235233D01*
G01X355666Y-2235233D02*
G01X482666Y-2235233D01*
G01X482666Y-2235233D02*
G01X546166Y-2171733D01*
G01X546166Y-2171733D02*
G01X609666Y-2235233D01*
G01X609666Y-2235233D02*
G01X736666Y-2235233D01*
G01X736666Y-2235233D02*
G01X800166Y-2171733D01*
G01X800166Y-2171733D02*
G01X863666Y-2235233D01*
G01X863666Y-2235233D02*
G01X990666Y-2235233D01*
G01X990666Y-2235233D02*
G01X1054166Y-2171733D01*
G01X1054166Y-2171733D02*
G01X1117666Y-2235233D01*
G01X1117666Y-2235233D02*
G01X1244666Y-2235233D01*
G01X1244666Y-2235233D02*
G01X1308166Y-2171733D01*
G01X1308166Y-2171733D02*
G01X1371666Y-2235233D01*
G01X1371666Y-2235233D02*
G01X1498666Y-2235233D01*
G01X1498666Y-2235233D02*
G01X1562166Y-2171733D01*
G01X1562166Y-2171733D02*
G01X1625666Y-2235233D01*
G01X1625666Y-2235233D02*
G01X1752666Y-2235233D01*
G01X1752666Y-2235233D02*
G01X1816166Y-2171733D01*
G01X1816166Y-2171733D02*
G01X1879666Y-2235233D01*
G01X1879666Y-2235233D02*
G01X2006661Y-2235233D01*
G01X2006661Y-2235233D02*
G01X2070138Y-2171733D01*
G01X2070138Y-2171733D02*
G01X2133638Y-2235233D01*
G01X2133638Y-2235233D02*
G01X2260615Y-2235233D01*
G01X2260615Y-2235233D02*
G01X2324115Y-2171733D01*
G01X2324115Y-2171733D02*
G01X2387615Y-2235233D01*
G01X2387615Y-2235233D02*
G01X2514615Y-2235233D01*
G01X2514615Y-2235233D02*
G01X2578115Y-2171733D01*
G01X2578115Y-2171733D02*
G01X2641615Y-2235233D01*
G01X2641615Y-2235233D02*
G01X2768615Y-2235233D01*
G01X2768615Y-2235233D02*
G01X2832115Y-2171733D01*
G01X2832115Y-2171733D02*
G01X2832115Y-2044733D01*
G01X2832115Y-2044733D02*
G01X2768615Y-1981233D01*
G01X2133638Y-1981233D02*
G01X2070138Y-2044733D01*
G01X2070138Y-2044733D02*
G01X2006661Y-1981233D01*
G01X2641615Y-1981233D02*
G01X2578115Y-2044733D01*
G01X2578115Y-2044733D02*
G01X2514615Y-1981233D01*
G01X2387615Y-1981233D02*
G01X2324115Y-2044733D01*
G01X2324115Y-2044733D02*
G01X2260615Y-1981233D01*
G01X1879666Y-1981233D02*
G01X1816166Y-2044733D01*
G01X1816166Y-2044733D02*
G01X1752666Y-1981233D01*
G01X1625666Y-1981233D02*
G01X1562166Y-2044733D01*
G01X1562166Y-2044733D02*
G01X1498666Y-1981233D01*
G01X1371666Y-1981233D02*
G01X1308166Y-2044733D01*
G01X1308166Y-2044733D02*
G01X1244666Y-1981233D01*
G01X1117666Y-1981233D02*
G01X1054166Y-2044733D01*
G01X1054166Y-2044733D02*
G01X990666Y-1981233D01*
G01X863666Y-1981233D02*
G01X800166Y-2044733D01*
G01X800166Y-2044733D02*
G01X736666Y-1981233D01*
G01X355666Y-1981233D02*
G01X292166Y-2044733D01*
G01X292166Y-2044733D02*
G01X228666Y-1981233D01*
G01X101666Y-1981233D02*
G01X38166Y-2044733D01*
G01X38166Y-2044733D02*
G01X-25334Y-1981233D01*
G01X-843280Y-2590800D02*
G01X-843280Y-2616190D01*
G01X-1231900Y-2590800D02*
G01X-1384300Y-2590800D01*
G01X-1384300Y-2590800D02*
G01X-1384300Y-3149600D01*
G01X-1384300Y-3149600D02*
G01X-843280Y-3149600D01*
G01X-843280Y-3149600D02*
G01X-843280Y-3128696D01*
G01X-1231900Y-2590800D02*
G01X-843280Y-2590800D01*
G01X-843280Y-2616190D02*
G01X-843280Y-3124200D01*
G54D10*
G01X-1239520Y-1973583D02*
G01X3093712Y-1973583D01*
G01X3093712Y-1973583D02*
G01X3093712Y-3766820D01*
G01X3093712Y-3766820D02*
G01X-1239520Y-3766820D01*
G01X-1239520Y-3766820D02*
G01X-1239520Y-1973583D01*
G01X6870699Y-1003301D02*
G01X6235701Y-1003301D01*
G01X6870699Y-1003301D02*
G01X6896099Y-1028701D01*
G01X6870699Y-1689099D02*
G01X6896099Y-1663699D01*
G01X6896099Y-1663699D02*
G01X6896099Y-1028701D01*
G01X6235701Y-1689099D02*
G01X6210301Y-1663699D01*
G01X6235701Y-1003301D02*
G01X6210301Y-1028701D01*
G01X6210301Y-1028701D02*
G01X6210301Y-1663699D01*
G01X6629400Y-1384300D02*
G01X6743700Y-1384300D01*
G01X6743700Y-1384300D02*
G01X6743700Y-1308100D01*
G01X6743700Y-1308100D02*
G01X6629400Y-1308100D01*
G01X6629400Y-1308100D02*
G01X6591300Y-1270000D01*
G01X6591300Y-1155700D02*
G01X6515100Y-1155700D01*
G01X6515100Y-1270000D02*
G01X6477000Y-1308100D01*
G01X6477000Y-1308100D02*
G01X6362700Y-1308100D01*
G01X6362700Y-1308100D02*
G01X6362700Y-1384300D01*
G01X6362700Y-1384300D02*
G01X6477000Y-1384300D01*
G01X6515100Y-1422400D02*
G01X6477000Y-1384300D01*
G01X6515100Y-1536700D02*
G01X6591300Y-1536700D01*
G01X6591300Y-1422400D02*
G01X6629400Y-1384300D01*
G54D15*
G01X6731000Y-1181100D02*
G01X6756400Y-1155700D01*
G01X6362700Y-1181100D02*
G01X6337300Y-1155700D01*
G54D10*
G01X6591300Y-1270000D02*
G01X6591300Y-1155700D01*
G01X6515100Y-1155700D02*
G01X6515100Y-1270000D01*
G01X6591300Y-1536700D02*
G01X6591300Y-1422400D01*
G01X6515100Y-1422400D02*
G01X6515100Y-1536700D01*
G01X6235701Y-1689099D02*
G01X6870699Y-1689099D01*
G54D13*
G01X10355097Y-3288820D02*
G01X10455079Y-3288820D01*
G01X10355097Y-3374278D02*
G01X10355097Y-3204279D01*
G01X10295082Y-3204304D02*
G01X10295082Y-3374291D01*
G01X10295082Y-3289762D02*
G01X10195082Y-3289762D01*
G01X10905100Y-2999300D02*
G01X10905100Y-3579300D01*
G01X12488697Y-3263420D02*
G01X12588679Y-3263420D01*
G01X12488697Y-3348878D02*
G01X12488697Y-3178879D01*
G01X12428682Y-3178904D02*
G01X12428682Y-3348891D01*
G01X12428682Y-3264362D02*
G01X12328682Y-3264362D01*
G01X13038700Y-2973900D02*
G01X13038700Y-3553900D01*
G01X14698497Y-3250720D02*
G01X14798479Y-3250720D01*
G01X14698497Y-3336178D02*
G01X14698497Y-3166179D01*
G01X14638482Y-3166204D02*
G01X14638482Y-3336191D01*
G01X14638482Y-3251662D02*
G01X14538482Y-3251662D01*
G01X15248500Y-2961200D02*
G01X15248500Y-3541200D01*
G01X17073397Y-3225320D02*
G01X17173379Y-3225320D01*
G01X17073397Y-3310778D02*
G01X17073397Y-3140779D01*
G01X17013382Y-3140804D02*
G01X17013382Y-3310791D01*
G01X17013382Y-3226262D02*
G01X16913382Y-3226262D01*
G01X17623400Y-2935800D02*
G01X17623400Y-3515800D01*
G01X14506301Y-55702D02*
G01X14506301Y394310D01*
G01X13916299Y394310D01*
G01X13916299Y-55702D01*
G01X14506301Y-55702D01*
G01X14211300Y-55700D02*
G01X14211300Y-15700D01*
G01X7451700Y-3557600D02*
G01X7951699Y-3557600D01*
G01X7951699Y-3557600D02*
G01X7951699Y-3757600D01*
G01X7951699Y-3757600D02*
G01X7451700Y-3757600D01*
G01X7451700Y-3757600D02*
G01X7451700Y-3557600D01*
G01X7390667Y-3657600D02*
G01X7451700Y-3657600D01*
G01X7951699Y-3657600D02*
G01X8015448Y-3657600D01*
G01X15824200Y-250200D02*
G01X15824200Y-2060700D01*
G01X15824200Y-250200D02*
G01X17624200Y-250200D01*
G01X17856200Y-647700D02*
G03X17856200Y-1663700I381000J-508000D01*
G01X15824200Y-2060700D02*
G01X17624200Y-2060700D01*
G01X17856200Y-1820700D02*
G01X16668200Y-1820700D01*
G01X16668200Y-490200D01*
G01X17856200Y-490200D01*
G01X17624200Y-250200D02*
G01X17624200Y-490200D01*
G01X17856200Y-490200D02*
G01X17856200Y-647700D01*
G01X17856200Y-1663700D02*
G01X17856200Y-1820700D01*
G01X17624200Y-2060700D02*
G01X17624200Y-1820700D01*
G54D16*
G01X6083300Y-3251200D02*
G01X5067300Y-3251200D01*
G01X5067300Y-3759200D02*
G01X6083300Y-3759200D01*
G01X6083300Y-3251200D02*
G01X6083300Y-3759200D01*
G01X5067300Y-3251200D02*
G01X5067300Y-3403600D01*
G01X5067300Y-3759200D02*
G01X5067300Y-3606800D01*
G01X5067300Y-3606800D02*
G03X5067300Y-3403600I0J101600D01*
G36*
G01X4956175Y-3822700D02*
G02X5003800Y-3775075I47625J0D01*
G02X5051425Y-3822700I0J-47625D01*
G02X5003800Y-3870325I-47625J0D01*
G02X4956175Y-3822700I0J47625D01*
G37*

G04 Rect Start*
G54D13*
G01X2438400Y-415392D02*
G01X2438400Y-144399D01*
G01X3454397Y-144399D01*
G01X3454397Y-415392D01*
G01X2438400Y-415392D01*
G04 Rect End*

G04 Circle Start*
G01X736600Y-6756400D02*
G03X2641600Y-6756400I952500J0D01*
G03X736600Y-6756400I-952500J0D01*
G01X4660900Y-6832600D02*
G03X6565900Y-6832600I952500J0D01*
G03X4660900Y-6832600I-952500J0D01*
G01X13385800Y-6769100D02*
G03X15290800Y-6769100I952500J0D01*
G03X13385800Y-6769100I-952500J0D01*
G01X8699500Y-6832600D02*
G03X10604500Y-6832600I952500J0D01*
G03X8699500Y-6832600I-952500J0D01*
G01X16090900Y-6731000D02*
G03X17995900Y-6731000I952500J0D01*
G03X16090900Y-6731000I-952500J0D01*
G54D18*
G01X6356050Y-1346200D02*
G03X6750350Y-1346200I197150J0D01*
G03X6356050Y-1346200I-197150J0D01*
G54D13*
G01X9675100Y-3289300D02*
G03X10975100Y-3289300I650000J0D01*
G03X9675100Y-3289300I-650000J0D01*
G01X11808700Y-3263900D02*
G03X13108700Y-3263900I650000J0D01*
G03X11808700Y-3263900I-650000J0D01*
G01X14018500Y-3251200D02*
G03X15318500Y-3251200I650000J0D01*
G03X14018500Y-3251200I-650000J0D01*
G01X16393400Y-3225800D02*
G03X17693400Y-3225800I650000J0D01*
G03X16393400Y-3225800I-650000J0D01*
G01X16173200Y-406200D02*
G03X16393200Y-406200I110000J0D01*
G03X16173200Y-406200I-110000J0D01*
G01X16173200Y-1904700D02*
G03X16393200Y-1904700I110000J0D01*
G03X16173200Y-1904700I-110000J0D01*
G04 Circle End*

M02*

