G04 Layer: TopLayer*
G04 EasyEDA Pro v2.2.47.7, 2026-04-27 23:22:34*
G04 Gerber Generator version 0.3*
G04 Scale: 100 percent, Rotated: No, Reflected: No*
G04 Dimensions in millimeters*
G04 Leading zeros omitted, absolute positions, 4 integers and 5 decimals*
G04 Generated by one-click*
G04 Object Configs: Pad,Via,Track,Text,Image,Dimension,BoardOutline,BoardCutout,CopperFilled,SolidRegion,FPCStiffener,Line,PlaneZone,ComponentProperty,ComponentSilkscreen,TearDrop*
G04 Layer Configs: 1,2,3,4,5,6,7,8,9,10,11,13,14,56*
G04 Copper Areas: 0*
%FSLAX45Y45*%
%MOMM*%
%ADD10C,0.203*%
%ADD11C,0.9*%
%ADD12C,2.2*%
%ADD13C,2.0*%
%ADD14O,1.3X3.69999*%
%ADD15R,1.6047X1.6*%
%ADD16R,1.6X1.6*%
%ADD17C,1.6*%
%ADD18C,1.9304*%
%ADD19C,1.5*%
%ADD20O,1.0X2.0*%
%ADD21C,1.524*%
%ADD22C,1.6256*%
%ADD23C,0.61*%
%ADD24C,0.254*%
G75*


G04 Image Start*
G36*
G01X222837Y-1391508D02*
G01X166618Y-1394800D01*
G01X121642Y-1394017D01*
G01X76667Y-1393234D01*
G01X52071Y-1390964D01*
G01X27475Y-1388694D01*
G01X1474Y-1385199D01*
G01X-24528Y-1381704D01*
G01X-36474Y-1379559D01*
G01X-48421Y-1377414D01*
G01X-68625Y-1373177D01*
G01X-88828Y-1368939D01*
G01X-111492Y-1363370D01*
G01X-134155Y-1357800D01*
G01X-155238Y-1351599D01*
G01X-176320Y-1345397D01*
G01X-194691Y-1339107D01*
G01X-213063Y-1332817D01*
G01X-232639Y-1325159D01*
G01X-252216Y-1317500D01*
G01X-274001Y-1308043D01*
G01X-295786Y-1298585D01*
G01X-316868Y-1288059D01*
G01X-337950Y-1277532D01*
G01X-353410Y-1269080D01*
G01X-368871Y-1260627D01*
G01X-394169Y-1245128D01*
G01X-419468Y-1229629D01*
G01X-435631Y-1218349D01*
G01X-451794Y-1207070D01*
G01X-467957Y-1195078D01*
G01X-484120Y-1183087D01*
G01X-498878Y-1171226D01*
G01X-513635Y-1159364D01*
G01X-527690Y-1146640D01*
G01X-541745Y-1133916D01*
G01X-557567Y-1119291D01*
G01X-573389Y-1104666D01*
G01X-596398Y-1079958D01*
G01X-619407Y-1055251D01*
G01X-630177Y-1042647D01*
G01X-640946Y-1030043D01*
G01X-651955Y-1015962D01*
G01X-662965Y-1001881D01*
G01X-676808Y-982921D01*
G01X-690651Y-963961D01*
G01X-720656Y-917442D01*
G01X-733542Y-895056D01*
G01X-746428Y-872671D01*
G01X-760947Y-843177D01*
G01X-775467Y-813683D01*
G01X-785961Y-789105D01*
G01X-796455Y-764527D01*
G01X-804242Y-743460D01*
G01X-812029Y-722393D01*
G01X-818380Y-702029D01*
G01X-824730Y-681664D01*
G01X-829027Y-666215D01*
G01X-833324Y-650766D01*
G01X-839606Y-623239D01*
G01X-845889Y-595712D01*
G01X-855765Y-535600D01*
G01X-859729Y-500489D01*
G01X-706918Y-500489D01*
G01X-705440Y-525769D01*
G01X-703961Y-551049D01*
G01X-701865Y-565796D01*
G01X-699768Y-580543D01*
G01X-696169Y-595290D01*
G01X-692570Y-610037D01*
G01X-687129Y-621715D01*
G01X-681687Y-633393D01*
G01X-674462Y-642466D01*
G01X-667237Y-651539D01*
G01X-658602Y-657653D01*
G01X-649967Y-663766D01*
G01X-644117Y-666712D01*
G01X-638267Y-669658D01*
G01X-628692Y-673259D01*
G01X-619118Y-676860D01*
G01X-602216Y-680235D01*
G01X-585315Y-683609D01*
G01X-547367Y-687889D01*
G01X-510824Y-689347D01*
G01X-474282Y-690804D01*
G01X-474282Y-690804D01*
G01X-355518Y-692211D01*
G01X-236756Y-693616D01*
G01X-157346Y-693616D01*
G01X-77936Y-693615D01*
G01X-56151Y-692167D01*
G01X-34366Y-690719D01*
G01X2176Y-685305D01*
G01X14826Y-681721D01*
G01X27475Y-678138D01*
G01X40827Y-671507D01*
G01X54179Y-664875D01*
G01X74308Y-644833D01*
G01X80782Y-631535D01*
G01X87255Y-618237D01*
G01X90097Y-607990D01*
G01X92939Y-597742D01*
G01X95683Y-581702D01*
G01X98427Y-565663D01*
G01X99465Y-546836D01*
G01X216146Y-546836D01*
G01X219344Y-586585D01*
G01X222705Y-599825D01*
G01X226066Y-613064D01*
G01X230618Y-622084D01*
G01X235170Y-631103D01*
G01X241235Y-638986D01*
G01X247300Y-646868D01*
G01X247300Y-646868D01*
G01X266692Y-665289D01*
G01X286084Y-683709D01*
G01X946483Y-683068D01*
G01X952915Y-657788D01*
G01X954303Y-647003D01*
G01X955692Y-636217D01*
G01X953028Y-612846D01*
G01X948704Y-599523D01*
G01X944379Y-586201D01*
G01X940026Y-578456D01*
G01X935674Y-570712D01*
G01X928722Y-561214D01*
G01X921771Y-551715D01*
G01X914248Y-545015D01*
G01X906725Y-538315D01*
G01X884275Y-524970D01*
G01X876275Y-522220D01*
G01X868275Y-519469D01*
G01X856167Y-517420D01*
G01X844060Y-515370D01*
G01X830708Y-513946D01*
G01X817356Y-512521D01*
G01X761136Y-509571D01*
G01X590844Y-506083D01*
G01X420550Y-502595D01*
G01X417496Y-502595D01*
G01X417433Y-445364D01*
G01X417370Y-388132D01*
G01X414932Y-327740D01*
G01X413230Y-320016D01*
G01X411528Y-312291D01*
G01X408971Y-307239D01*
G01X406414Y-302187D01*
G01X399623Y-297740D01*
G01X388942Y-295535D01*
G01X378261Y-293331D01*
G01X357471Y-293483D01*
G01X336681Y-293635D01*
G01X306668Y-297268D01*
G01X299339Y-298838D01*
G01X292011Y-300409D01*
G01X282717Y-305289D01*
G01X273423Y-310170D01*
G01X249265Y-329597D01*
G01X242583Y-338479D01*
G01X235901Y-347361D01*
G01X232711Y-353702D01*
G01X229521Y-360043D01*
G01X227288Y-367794D01*
G01X225055Y-375546D01*
G01X222915Y-393074D01*
G01X220775Y-410603D01*
G01X219346Y-437990D01*
G01X217916Y-465377D01*
G01X217031Y-506107D01*
G01X216146Y-546836D01*
G01X99465Y-546836D01*
G01X101789Y-504702D01*
G01X100080Y-366363D01*
G01X98371Y-228023D01*
G01X97493Y-140624D01*
G01X216512Y-140624D01*
G01X216512Y-155637D01*
G01X218861Y-161634D01*
G01X221210Y-167632D01*
G01X229326Y-179613D01*
G01X232646Y-181786D01*
G01X235966Y-183960D01*
G01X248259Y-185948D01*
G01X260553Y-187937D01*
G01X298617Y-189548D01*
G01X298617Y-189548D01*
G01X336681Y-191158D01*
G01X411172Y-190238D01*
G01X485662Y-189318D01*
G01X642373Y-186565D01*
G01X799084Y-183813D01*
G01X804004Y-183597D01*
G01X808923Y-183381D01*
G01X681024Y-180954D01*
G01X553125Y-178526D01*
G01X415036Y-175241D01*
G01X276948Y-171957D01*
G01X276948Y-170083D01*
G01X460715Y-169008D01*
G01X644481Y-167934D01*
G01X702106Y-168835D01*
G01X759731Y-169736D01*
G01X787138Y-171196D01*
G01X814545Y-172657D01*
G01X826817Y-174594D01*
G01X839088Y-176532D01*
G01X846660Y-180112D01*
G01X854232Y-183691D01*
G01X859711Y-184566D01*
G01X865190Y-185442D01*
G01X881269Y-179795D01*
G01X890071Y-174478D01*
G01X898874Y-169161D01*
G01X913923Y-155011D01*
G01X916728Y-149516D01*
G01X919534Y-144020D01*
G01X918556Y-134901D01*
G01X917579Y-125782D01*
G01X923847Y-126640D01*
G01X930115Y-127499D01*
G01X935577Y-122795D01*
G01X941038Y-118091D01*
G01X945784Y-110196D01*
G01X950531Y-102301D01*
G01X957201Y-83939D01*
G01X957201Y-70022D01*
G01X952427Y-70022D01*
G01X943075Y-76292D01*
G01X933723Y-82562D01*
G01X927331Y-84270D01*
G01X920940Y-85978D01*
G01X917285Y-83586D01*
G01X913631Y-81192D01*
G01X913631Y-72700D01*
G01X917986Y-70308D01*
G01X922341Y-67915D01*
G01X925893Y-65217D01*
G01X929445Y-62518D01*
G01X932048Y-56790D01*
G01X934651Y-51062D01*
G01X934682Y-48741D01*
G01X934713Y-46421D01*
G01X930146Y-44827D01*
G01X925578Y-43234D01*
G01X908009Y-41177D01*
G01X890440Y-39121D01*
G01X856006Y-37048D01*
G01X821572Y-34977D01*
G01X773083Y-33544D01*
G01X724594Y-32112D01*
G01X611452Y-32403D01*
G01X498311Y-32694D01*
G01X483554Y-33040D01*
G01X468796Y-33386D01*
G01X426632Y-34906D01*
G01X384467Y-36426D01*
G01X329654Y-40585D01*
G01X315974Y-42623D01*
G01X302293Y-44661D01*
G01X296585Y-47571D01*
G01X290876Y-50481D01*
G01X285244Y-55566D01*
G01X279611Y-60650D01*
G01X278182Y-63319D01*
G01X276753Y-65988D01*
G01X278377Y-67943D01*
G01X280001Y-69899D01*
G01X279094Y-71365D01*
G01X278188Y-72831D01*
G01X262803Y-72831D01*
G01X257847Y-74900D01*
G01X252890Y-76969D01*
G01X249200Y-79870D01*
G01X245510Y-82771D01*
G01X242154Y-87706D01*
G01X238797Y-92642D01*
G01X233378Y-108382D01*
G01X233378Y-114799D01*
G01X234815Y-115686D01*
G01X236252Y-116574D01*
G01X250346Y-111896D01*
G01X252551Y-113724D01*
G01X254756Y-115553D01*
G01X253906Y-124037D01*
G01X253057Y-132520D01*
G01X252179Y-142543D01*
G01X251300Y-152566D01*
G01X255047Y-159397D01*
G01X258794Y-166227D01*
G01X264357Y-170180D01*
G01X269920Y-174134D01*
G01X269920Y-176761D01*
G01X261839Y-176730D01*
G01X253758Y-176699D01*
G01X242398Y-171543D01*
G01X238590Y-167021D01*
G01X234783Y-162500D01*
G01X234158Y-159448D01*
G01X233533Y-156396D01*
G01X232992Y-149361D01*
G01X232450Y-142325D01*
G01X230441Y-138125D01*
G01X228433Y-133925D01*
G01X222459Y-133069D01*
G01X219485Y-136847D01*
G01X216512Y-140624D01*
G01X97493Y-140624D01*
G01X97479Y-139184D01*
G01X96586Y-50344D01*
G01X91546Y-49026D01*
G01X86505Y-47709D01*
G01X70342Y-43409D01*
G01X54179Y-39109D01*
G01X42935Y-38251D01*
G01X31692Y-37393D01*
G01X18340Y-39005D01*
G01X4987Y-40617D01*
G01X-21446Y-47756D01*
G01X-45732Y-58219D01*
G01X-55970Y-65083D01*
G01X-66209Y-71947D01*
G01X-84082Y-91238D01*
G01X-86922Y-97132D01*
G01X-89762Y-103027D01*
G01X-91936Y-111418D01*
G01X-94110Y-119810D01*
G01X-96172Y-139508D01*
G01X-98235Y-159205D01*
G01X-99639Y-207659D01*
G01X-101043Y-256113D01*
G01X-102501Y-362852D01*
G01X-103959Y-469590D01*
G01X-104799Y-490088D01*
G01X-105640Y-510585D01*
G01X-157845Y-511507D01*
G01X-210051Y-512428D01*
G01X-310543Y-513790D01*
G01X-411035Y-515151D01*
G01X-492682Y-516632D01*
G01X-495125Y-400417D01*
G01X-497569Y-284202D01*
G01X-500301Y-197125D01*
G01X-501731Y-176761D01*
G01X-503160Y-156396D01*
G01X-505295Y-140245D01*
G01X-507430Y-124093D01*
G01X-510899Y-110918D01*
G01X-514369Y-97743D01*
G01X-518799Y-89438D01*
G01X-523229Y-81133D01*
G01X-528775Y-74837D01*
G01X-534321Y-68541D01*
G01X-542981Y-62365D01*
G01X-551642Y-56190D01*
G01X-559004Y-53290D01*
G01X-566367Y-50390D01*
G01X-597964Y-42004D01*
G01X-637318Y-35160D01*
G01X-649967Y-34410D01*
G01X-662616Y-33659D01*
G01X-668820Y-34953D01*
G01X-675025Y-36247D01*
G01X-685651Y-43274D01*
G01X-689197Y-49321D01*
G01X-692743Y-55367D01*
G01X-694848Y-61327D01*
G01X-696952Y-67288D01*
G01X-701097Y-87577D01*
G01X-704127Y-115667D01*
G01X-705481Y-147267D01*
G01X-706835Y-178867D01*
G01X-706877Y-339678D01*
G01X-706918Y-500489D01*
G01X-859729Y-500489D01*
G01X-860046Y-497680D01*
G01X-861722Y-476613D01*
G01X-863399Y-455546D01*
G01X-863500Y-406390D01*
G01X-863600Y-357234D01*
G01X-861806Y-336869D01*
G01X-860012Y-316505D01*
G01X-855711Y-277180D01*
G01X-846085Y-219597D01*
G01X-843311Y-206957D01*
G01X-840536Y-194317D01*
G01X-836351Y-176761D01*
G01X-832165Y-159205D01*
G01X-825677Y-136734D01*
G01X-819190Y-114262D01*
G01X-807717Y-80555D01*
G01X-801730Y-64404D01*
G01X-795743Y-48252D01*
G01X-785118Y-23449D01*
G01X-774492Y1355D01*
G01X-761616Y27112D01*
G01X-748741Y52868D01*
G01X-737445Y73132D01*
G01X-726150Y93395D01*
G01X-699546Y135732D01*
G01X-684669Y156798D01*
G01X-669791Y177866D01*
G01X-638924Y217191D01*
G01X-625472Y232585D01*
G01X-612019Y247980D01*
G01X-591955Y269101D01*
G01X-571890Y290222D01*
G01X-554007Y306874D01*
G01X-536123Y323525D01*
G01X-515041Y341407D01*
G01X-493958Y359287D01*
G01X-472174Y375372D01*
G01X-450388Y391456D01*
G01X-413846Y416336D01*
G01X-392061Y429695D01*
G01X-370276Y443055D01*
G01X-344275Y456997D01*
G01X-318273Y470940D01*
G01X-291569Y483316D01*
G01X-264865Y495693D01*
G01X-243839Y504380D01*
G01X-222813Y513067D01*
G01X-198161Y521856D01*
G01X-173509Y530644D01*
G01X-148210Y538519D01*
G01X-122912Y546394D01*
G01X-88940Y554822D01*
G01X-54968Y563249D01*
G01X-39748Y565324D01*
G01X-24528Y567398D01*
G01X12015Y570450D01*
G01X18340Y570975D01*
G01X24664Y571500D01*
G01X128670Y571038D01*
G01X232675Y570575D01*
G01X254460Y569132D01*
G01X276245Y567690D01*
G01X293814Y566154D01*
G01X311382Y564619D01*
G01X333167Y561289D01*
G01X354952Y557960D01*
G01X379548Y551654D01*
G01X404144Y545348D01*
G01X434362Y535254D01*
G01X464580Y525161D01*
G01X483554Y518134D01*
G01X502528Y511108D01*
G01X561374Y485966D01*
G01X586764Y473527D01*
G01X612155Y461088D01*
G01X651509Y439486D01*
G01X666969Y430282D01*
G01X682429Y421079D01*
G01X710539Y402181D01*
G01X738649Y383284D01*
G01X754109Y371668D01*
G01X769569Y360052D01*
G01X788844Y343982D01*
G01X808118Y327911D01*
G01X830305Y307443D01*
G01X852493Y286976D01*
G01X868070Y270341D01*
G01X883647Y253706D01*
G01X895477Y240364D01*
G01X907306Y227021D01*
G01X919387Y212274D01*
G01X931467Y197528D01*
G01X944537Y179972D01*
G01X957608Y162416D01*
G01X968591Y146041D01*
G01X979574Y129666D01*
G01X992064Y109525D01*
G01X1004555Y89385D01*
G01X1015929Y68818D01*
G01X1027303Y48252D01*
G01X1044725Y13544D01*
G01X1053097Y-4715D01*
G01X1061469Y-22972D01*
G01X1073141Y-52466D01*
G01X1084814Y-81960D01*
G01X1092579Y-103784D01*
G01X1100345Y-125609D01*
G01X1114506Y-171845D01*
G01X1118758Y-189401D01*
G01X1123009Y-206957D01*
G01X1125817Y-223471D01*
G01X1128626Y-239985D01*
G01X1130707Y-261391D01*
G01X1132789Y-282798D01*
G01X1134537Y-308780D01*
G01X1136287Y-334763D01*
G01X1136400Y-478018D01*
G01X1134558Y-500489D01*
G01X1132716Y-522960D01*
G01X1129250Y-550347D01*
G01X1125785Y-577734D01*
G01X1122922Y-594588D01*
G01X1120058Y-611441D01*
G01X1115889Y-631103D01*
G01X1111719Y-650766D01*
G01X1105484Y-674642D01*
G01X1099248Y-698518D01*
G01X1090270Y-725202D01*
G01X1081292Y-751887D01*
G01X1073232Y-772252D01*
G01X1065172Y-792616D01*
G01X1046442Y-830537D01*
G01X1027712Y-868457D01*
G01X1014519Y-890226D01*
G01X1001325Y-911996D01*
G01X987199Y-933062D01*
G01X973073Y-954129D01*
G01X960101Y-971499D01*
G01X947130Y-988868D01*
G01X931453Y-1008015D01*
G01X915775Y-1027161D01*
G01X898891Y-1046116D01*
G01X882008Y-1065071D01*
G01X831797Y-1116277D01*
G01X789246Y-1155456D01*
G01X771678Y-1169856D01*
G01X754109Y-1184255D01*
G01X734432Y-1198967D01*
G01X714756Y-1213678D01*
G01X666969Y-1245197D01*
G01X643779Y-1258796D01*
G01X620588Y-1272395D01*
G01X587559Y-1288906D01*
G01X554530Y-1305417D01*
G01X533448Y-1314306D01*
G01X512366Y-1323195D01*
G01X490706Y-1331476D01*
G01X469047Y-1339758D01*
G01X420252Y-1355119D01*
G01X393224Y-1362109D01*
G01X366196Y-1369098D01*
G01X346252Y-1373320D01*
G01X326308Y-1377542D01*
G01X284678Y-1384569D01*
G01X253758Y-1388039D01*
G01X222837Y-1391508D01*
G37*
G04 Image End*

G04 Text Start*
G54D10*
G01X3843020Y-6449060D02*
G01X3851910Y-6466840D01*
G01X3878580Y-6493510D01*
G01X3691890Y-6493510D01*
G01X3878580Y-6609842D02*
G01X3869690Y-6583172D01*
G01X3843020Y-6565392D01*
G01X3798570Y-6556502D01*
G01X3771900Y-6556502D01*
G01X3727450Y-6565392D01*
G01X3700780Y-6583172D01*
G01X3691890Y-6609842D01*
G01X3691890Y-6627622D01*
G01X3700780Y-6654292D01*
G01X3727450Y-6672072D01*
G01X3771900Y-6680962D01*
G01X3798570Y-6680962D01*
G01X3843020Y-6672072D01*
G01X3869690Y-6654292D01*
G01X3878580Y-6627622D01*
G01X3878580Y-6609842D01*
G01X3878580Y-6743954D02*
G01X3691890Y-6743954D01*
G01X3816350Y-6832854D02*
G01X3727450Y-6743954D01*
G01X3763010Y-6779514D02*
G01X3691890Y-6841744D01*
G01X3816350Y-7148322D02*
G01X3807460Y-7130542D01*
G01X3789680Y-7112762D01*
G01X3763010Y-7103872D01*
G01X3745230Y-7103872D01*
G01X3718560Y-7112762D01*
G01X3700780Y-7130542D01*
G01X3691890Y-7148322D01*
G01X3691890Y-7174992D01*
G01X3700780Y-7192772D01*
G01X3718560Y-7210552D01*
G01X3745230Y-7219442D01*
G01X3763010Y-7219442D01*
G01X3789680Y-7210552D01*
G01X3807460Y-7192772D01*
G01X3816350Y-7174992D01*
G01X3816350Y-7148322D01*
G01X3878580Y-7282434D02*
G01X3691890Y-7282434D01*
G01X3780790Y-7282434D02*
G01X3807460Y-7309104D01*
G01X3816350Y-7326884D01*
G01X3816350Y-7353554D01*
G01X3807460Y-7371334D01*
G01X3780790Y-7380224D01*
G01X3691890Y-7380224D01*
G01X3816350Y-7443216D02*
G01X3691890Y-7443216D01*
G01X3780790Y-7443216D02*
G01X3807460Y-7469886D01*
G01X3816350Y-7487666D01*
G01X3816350Y-7514336D01*
G01X3807460Y-7532116D01*
G01X3780790Y-7541006D01*
G01X3691890Y-7541006D01*
G01X3780790Y-7541006D02*
G01X3807460Y-7567676D01*
G01X3816350Y-7585456D01*
G01X3816350Y-7612126D01*
G01X3807460Y-7629906D01*
G01X3780790Y-7638796D01*
G01X3691890Y-7638796D01*
G01X71120Y-6377437D02*
G01X80010Y-6395217D01*
G01X106680Y-6421887D01*
G01X-80010Y-6421887D01*
G01X106680Y-6538219D02*
G01X97790Y-6511549D01*
G01X71120Y-6493769D01*
G01X26670Y-6484879D01*
G01X0Y-6484879D01*
G01X-44450Y-6493769D01*
G01X-71120Y-6511549D01*
G01X-80010Y-6538219D01*
G01X-80010Y-6555999D01*
G01X-71120Y-6582669D01*
G01X-44450Y-6600449D01*
G01X0Y-6609339D01*
G01X26670Y-6609339D01*
G01X71120Y-6600449D01*
G01X97790Y-6582669D01*
G01X106680Y-6555999D01*
G01X106680Y-6538219D01*
G01X106680Y-6672331D02*
G01X-80010Y-6672331D01*
G01X44450Y-6761231D02*
G01X-44450Y-6672331D01*
G01X-8890Y-6707891D02*
G01X-80010Y-6770121D01*
G01X44450Y-7076699D02*
G01X35560Y-7058919D01*
G01X17780Y-7041139D01*
G01X-8890Y-7032249D01*
G01X-26670Y-7032249D01*
G01X-53340Y-7041139D01*
G01X-71120Y-7058919D01*
G01X-80010Y-7076699D01*
G01X-80010Y-7103369D01*
G01X-71120Y-7121149D01*
G01X-53340Y-7138929D01*
G01X-26670Y-7147819D01*
G01X-8890Y-7147819D01*
G01X17780Y-7138929D01*
G01X35560Y-7121149D01*
G01X44450Y-7103369D01*
G01X44450Y-7076699D01*
G01X106680Y-7210811D02*
G01X-80010Y-7210811D01*
G01X8890Y-7210811D02*
G01X35560Y-7237481D01*
G01X44450Y-7255261D01*
G01X44450Y-7281931D01*
G01X35560Y-7299711D01*
G01X8890Y-7308601D01*
G01X-80010Y-7308601D01*
G01X44450Y-7371593D02*
G01X-80010Y-7371593D01*
G01X8890Y-7371593D02*
G01X35560Y-7398263D01*
G01X44450Y-7416043D01*
G01X44450Y-7442713D01*
G01X35560Y-7460493D01*
G01X8890Y-7469383D01*
G01X-80010Y-7469383D01*
G01X8890Y-7469383D02*
G01X35560Y-7496053D01*
G01X44450Y-7513833D01*
G01X44450Y-7540503D01*
G01X35560Y-7558283D01*
G01X8890Y-7567173D01*
G01X-80010Y-7567173D01*
G01X8072120Y-6275837D02*
G01X8081010Y-6293617D01*
G01X8107680Y-6320287D01*
G01X7920990Y-6320287D01*
G01X8107680Y-6436619D02*
G01X8098790Y-6409949D01*
G01X8072120Y-6392169D01*
G01X8027670Y-6383279D01*
G01X8001000Y-6383279D01*
G01X7956550Y-6392169D01*
G01X7929880Y-6409949D01*
G01X7920990Y-6436619D01*
G01X7920990Y-6454399D01*
G01X7929880Y-6481069D01*
G01X7956550Y-6498849D01*
G01X8001000Y-6507739D01*
G01X8027670Y-6507739D01*
G01X8072120Y-6498849D01*
G01X8098790Y-6481069D01*
G01X8107680Y-6454399D01*
G01X8107680Y-6436619D01*
G01X8107680Y-6570731D02*
G01X7920990Y-6570731D01*
G01X8045450Y-6659631D02*
G01X7956550Y-6570731D01*
G01X7992110Y-6606291D02*
G01X7920990Y-6668521D01*
G01X8045450Y-6975099D02*
G01X8036560Y-6957319D01*
G01X8018780Y-6939539D01*
G01X7992110Y-6930649D01*
G01X7974330Y-6930649D01*
G01X7947660Y-6939539D01*
G01X7929880Y-6957319D01*
G01X7920990Y-6975099D01*
G01X7920990Y-7001769D01*
G01X7929880Y-7019549D01*
G01X7947660Y-7037329D01*
G01X7974330Y-7046219D01*
G01X7992110Y-7046219D01*
G01X8018780Y-7037329D01*
G01X8036560Y-7019549D01*
G01X8045450Y-7001769D01*
G01X8045450Y-6975099D01*
G01X8107680Y-7109211D02*
G01X7920990Y-7109211D01*
G01X8009890Y-7109211D02*
G01X8036560Y-7135881D01*
G01X8045450Y-7153661D01*
G01X8045450Y-7180331D01*
G01X8036560Y-7198111D01*
G01X8009890Y-7207001D01*
G01X7920990Y-7207001D01*
G01X8045450Y-7269993D02*
G01X7920990Y-7269993D01*
G01X8009890Y-7269993D02*
G01X8036560Y-7296663D01*
G01X8045450Y-7314443D01*
G01X8045450Y-7341113D01*
G01X8036560Y-7358893D01*
G01X8009890Y-7367783D01*
G01X7920990Y-7367783D01*
G01X8009890Y-7367783D02*
G01X8036560Y-7394453D01*
G01X8045450Y-7412233D01*
G01X8045450Y-7438903D01*
G01X8036560Y-7456683D01*
G01X8009890Y-7465573D01*
G01X7920990Y-7465573D01*
G01X12339320Y-6250437D02*
G01X12348210Y-6268217D01*
G01X12374880Y-6294887D01*
G01X12188190Y-6294887D01*
G01X12374880Y-6411219D02*
G01X12365990Y-6384549D01*
G01X12339320Y-6366769D01*
G01X12294870Y-6357879D01*
G01X12268200Y-6357879D01*
G01X12223750Y-6366769D01*
G01X12197080Y-6384549D01*
G01X12188190Y-6411219D01*
G01X12188190Y-6428999D01*
G01X12197080Y-6455669D01*
G01X12223750Y-6473449D01*
G01X12268200Y-6482339D01*
G01X12294870Y-6482339D01*
G01X12339320Y-6473449D01*
G01X12365990Y-6455669D01*
G01X12374880Y-6428999D01*
G01X12374880Y-6411219D01*
G01X12374880Y-6545331D02*
G01X12188190Y-6545331D01*
G01X12312650Y-6634231D02*
G01X12223750Y-6545331D01*
G01X12259310Y-6580891D02*
G01X12188190Y-6643121D01*
G01X12312650Y-6949699D02*
G01X12303760Y-6931919D01*
G01X12285980Y-6914139D01*
G01X12259310Y-6905249D01*
G01X12241530Y-6905249D01*
G01X12214860Y-6914139D01*
G01X12197080Y-6931919D01*
G01X12188190Y-6949699D01*
G01X12188190Y-6976369D01*
G01X12197080Y-6994149D01*
G01X12214860Y-7011929D01*
G01X12241530Y-7020819D01*
G01X12259310Y-7020819D01*
G01X12285980Y-7011929D01*
G01X12303760Y-6994149D01*
G01X12312650Y-6976369D01*
G01X12312650Y-6949699D01*
G01X12374880Y-7083811D02*
G01X12188190Y-7083811D01*
G01X12277090Y-7083811D02*
G01X12303760Y-7110481D01*
G01X12312650Y-7128261D01*
G01X12312650Y-7154931D01*
G01X12303760Y-7172711D01*
G01X12277090Y-7181601D01*
G01X12188190Y-7181601D01*
G01X12312650Y-7244593D02*
G01X12188190Y-7244593D01*
G01X12277090Y-7244593D02*
G01X12303760Y-7271263D01*
G01X12312650Y-7289043D01*
G01X12312650Y-7315713D01*
G01X12303760Y-7333493D01*
G01X12277090Y-7342383D01*
G01X12188190Y-7342383D01*
G01X12277090Y-7342383D02*
G01X12303760Y-7369053D01*
G01X12312650Y-7386833D01*
G01X12312650Y-7413503D01*
G01X12303760Y-7431283D01*
G01X12277090Y-7440173D01*
G01X12188190Y-7440173D01*
G01X15492577Y-6232238D02*
G01X15501467Y-6250018D01*
G01X15528137Y-6276688D01*
G01X15341447Y-6276688D01*
G01X15528137Y-6393020D02*
G01X15519247Y-6366350D01*
G01X15492577Y-6348570D01*
G01X15448127Y-6339680D01*
G01X15421457Y-6339680D01*
G01X15377007Y-6348570D01*
G01X15350337Y-6366350D01*
G01X15341447Y-6393020D01*
G01X15341447Y-6410800D01*
G01X15350337Y-6437470D01*
G01X15377007Y-6455250D01*
G01X15421457Y-6464140D01*
G01X15448127Y-6464140D01*
G01X15492577Y-6455250D01*
G01X15519247Y-6437470D01*
G01X15528137Y-6410800D01*
G01X15528137Y-6393020D01*
G01X15528137Y-6527132D02*
G01X15341447Y-6527132D01*
G01X15465907Y-6616032D02*
G01X15377007Y-6527132D01*
G01X15412567Y-6562692D02*
G01X15341447Y-6624922D01*
G01X15465907Y-6931500D02*
G01X15457017Y-6913720D01*
G01X15439237Y-6895940D01*
G01X15412567Y-6887050D01*
G01X15394787Y-6887050D01*
G01X15368117Y-6895940D01*
G01X15350337Y-6913720D01*
G01X15341447Y-6931500D01*
G01X15341447Y-6958170D01*
G01X15350337Y-6975950D01*
G01X15368117Y-6993730D01*
G01X15394787Y-7002620D01*
G01X15412567Y-7002620D01*
G01X15439237Y-6993730D01*
G01X15457017Y-6975950D01*
G01X15465907Y-6958170D01*
G01X15465907Y-6931500D01*
G01X15528137Y-7065612D02*
G01X15341447Y-7065612D01*
G01X15430347Y-7065612D02*
G01X15457017Y-7092282D01*
G01X15465907Y-7110062D01*
G01X15465907Y-7136732D01*
G01X15457017Y-7154512D01*
G01X15430347Y-7163402D01*
G01X15341447Y-7163402D01*
G01X15465907Y-7226394D02*
G01X15341447Y-7226394D01*
G01X15430347Y-7226394D02*
G01X15457017Y-7253064D01*
G01X15465907Y-7270844D01*
G01X15465907Y-7297514D01*
G01X15457017Y-7315294D01*
G01X15430347Y-7324184D01*
G01X15341447Y-7324184D01*
G01X15430347Y-7324184D02*
G01X15457017Y-7350854D01*
G01X15465907Y-7368634D01*
G01X15465907Y-7395304D01*
G01X15457017Y-7413084D01*
G01X15430347Y-7421974D01*
G01X15341447Y-7421974D01*
G01X7261860Y-3929380D02*
G01X7279640Y-3920490D01*
G01X7306310Y-3893820D01*
G01X7306310Y-4080510D01*
G01X7422642Y-3893820D02*
G01X7395972Y-3902710D01*
G01X7378192Y-3929380D01*
G01X7369302Y-3973830D01*
G01X7369302Y-4000500D01*
G01X7378192Y-4044950D01*
G01X7395972Y-4071620D01*
G01X7422642Y-4080510D01*
G01X7440422Y-4080510D01*
G01X7467092Y-4071620D01*
G01X7484872Y-4044950D01*
G01X7493762Y-4000500D01*
G01X7493762Y-3973830D01*
G01X7484872Y-3929380D01*
G01X7467092Y-3902710D01*
G01X7440422Y-3893820D01*
G01X7422642Y-3893820D01*
G01X7800340Y-3956050D02*
G01X7782560Y-3964940D01*
G01X7764780Y-3982720D01*
G01X7755890Y-4009390D01*
G01X7755890Y-4027170D01*
G01X7764780Y-4053840D01*
G01X7782560Y-4071620D01*
G01X7800340Y-4080510D01*
G01X7827010Y-4080510D01*
G01X7844790Y-4071620D01*
G01X7862570Y-4053840D01*
G01X7871460Y-4027170D01*
G01X7871460Y-4009390D01*
G01X7862570Y-3982720D01*
G01X7844790Y-3964940D01*
G01X7827010Y-3956050D01*
G01X7800340Y-3956050D01*
G01X7934452Y-3893820D02*
G01X7934452Y-4080510D01*
G01X7934452Y-3991610D02*
G01X7961122Y-3964940D01*
G01X7978902Y-3956050D01*
G01X8005572Y-3956050D01*
G01X8023352Y-3964940D01*
G01X8032242Y-3991610D01*
G01X8032242Y-4080510D01*
G01X8095234Y-3956050D02*
G01X8095234Y-4080510D01*
G01X8095234Y-3991610D02*
G01X8121904Y-3964940D01*
G01X8139684Y-3956050D01*
G01X8166354Y-3956050D01*
G01X8184134Y-3964940D01*
G01X8193024Y-3991610D01*
G01X8193024Y-4080510D01*
G01X8193024Y-3991610D02*
G01X8219694Y-3964940D01*
G01X8237474Y-3956050D01*
G01X8264144Y-3956050D01*
G01X8281924Y-3964940D01*
G01X8290814Y-3991610D01*
G01X8290814Y-4080510D01*
G01X10081260Y-3637280D02*
G01X10099040Y-3628390D01*
G01X10125710Y-3601720D01*
G01X10125710Y-3788410D01*
G01X10242042Y-3601720D02*
G01X10215372Y-3610610D01*
G01X10197592Y-3637280D01*
G01X10188702Y-3681730D01*
G01X10188702Y-3708400D01*
G01X10197592Y-3752850D01*
G01X10215372Y-3779520D01*
G01X10242042Y-3788410D01*
G01X10259822Y-3788410D01*
G01X10286492Y-3779520D01*
G01X10304272Y-3752850D01*
G01X10313162Y-3708400D01*
G01X10313162Y-3681730D01*
G01X10304272Y-3637280D01*
G01X10286492Y-3610610D01*
G01X10259822Y-3601720D01*
G01X10242042Y-3601720D01*
G01X10376154Y-3663950D02*
G01X10376154Y-3752850D01*
G01X10385044Y-3779520D01*
G01X10402824Y-3788410D01*
G01X10429494Y-3788410D01*
G01X10447274Y-3779520D01*
G01X10473944Y-3752850D01*
G01X10473944Y-3663950D02*
G01X10473944Y-3788410D01*
G01X10536936Y-3601720D02*
G01X10536936Y-3788410D01*
G01X10536936Y-3601720D02*
G01X10652506Y-3601720D01*
G01X10536936Y-3690620D02*
G01X10608056Y-3690620D01*
G01X12173082Y-3608653D02*
G01X12190862Y-3599763D01*
G01X12217532Y-3573093D01*
G01X12217532Y-3759783D01*
G01X12333864Y-3573093D02*
G01X12307194Y-3581983D01*
G01X12289414Y-3608653D01*
G01X12280524Y-3653103D01*
G01X12280524Y-3679773D01*
G01X12289414Y-3724223D01*
G01X12307194Y-3750893D01*
G01X12333864Y-3759783D01*
G01X12351644Y-3759783D01*
G01X12378314Y-3750893D01*
G01X12396094Y-3724223D01*
G01X12404984Y-3679773D01*
G01X12404984Y-3653103D01*
G01X12396094Y-3608653D01*
G01X12378314Y-3581983D01*
G01X12351644Y-3573093D01*
G01X12333864Y-3573093D01*
G01X12467976Y-3635323D02*
G01X12467976Y-3724223D01*
G01X12476866Y-3750893D01*
G01X12494646Y-3759783D01*
G01X12521316Y-3759783D01*
G01X12539096Y-3750893D01*
G01X12565766Y-3724223D01*
G01X12565766Y-3635323D02*
G01X12565766Y-3759783D01*
G01X12628758Y-3573093D02*
G01X12628758Y-3759783D01*
G01X12628758Y-3573093D02*
G01X12744328Y-3573093D01*
G01X12628758Y-3661993D02*
G01X12699878Y-3661993D01*
G01X14461622Y-3576320D02*
G01X14434952Y-3585210D01*
G01X14417172Y-3611880D01*
G01X14408282Y-3656330D01*
G01X14408282Y-3683000D01*
G01X14417172Y-3727450D01*
G01X14434952Y-3754120D01*
G01X14461622Y-3763010D01*
G01X14479402Y-3763010D01*
G01X14506072Y-3754120D01*
G01X14523852Y-3727450D01*
G01X14532742Y-3683000D01*
G01X14532742Y-3656330D01*
G01X14523852Y-3611880D01*
G01X14506072Y-3585210D01*
G01X14479402Y-3576320D01*
G01X14461622Y-3576320D01*
G01X14604624Y-3718560D02*
G01X14595734Y-3727450D01*
G01X14604624Y-3736340D01*
G01X14613514Y-3727450D01*
G01X14604624Y-3718560D01*
G01X14676506Y-3611880D02*
G01X14694286Y-3602990D01*
G01X14720956Y-3576320D01*
G01X14720956Y-3763010D01*
G01X14783948Y-3638550D02*
G01X14783948Y-3727450D01*
G01X14792838Y-3754120D01*
G01X14810618Y-3763010D01*
G01X14837288Y-3763010D01*
G01X14855068Y-3754120D01*
G01X14881738Y-3727450D01*
G01X14881738Y-3638550D02*
G01X14881738Y-3763010D01*
G01X14944730Y-3576320D02*
G01X14944730Y-3763010D01*
G01X14944730Y-3576320D02*
G01X15060300Y-3576320D01*
G01X14944730Y-3665220D02*
G01X15015850Y-3665220D01*
G01X16630650Y-3519170D02*
G01X16630650Y-3510280D01*
G01X16639540Y-3492500D01*
G01X16648430Y-3483610D01*
G01X16666210Y-3474720D01*
G01X16701770Y-3474720D01*
G01X16719550Y-3483610D01*
G01X16728440Y-3492500D01*
G01X16737330Y-3510280D01*
G01X16737330Y-3528060D01*
G01X16728440Y-3545840D01*
G01X16710660Y-3572510D01*
G01X16621760Y-3661410D01*
G01X16746220Y-3661410D01*
G01X16915892Y-3474720D02*
G01X16826992Y-3474720D01*
G01X16818102Y-3554730D01*
G01X16826992Y-3545840D01*
G01X16853662Y-3536950D01*
G01X16880332Y-3536950D01*
G01X16907002Y-3545840D01*
G01X16924782Y-3563620D01*
G01X16933672Y-3590290D01*
G01X16933672Y-3608070D01*
G01X16924782Y-3634740D01*
G01X16907002Y-3652520D01*
G01X16880332Y-3661410D01*
G01X16853662Y-3661410D01*
G01X16826992Y-3652520D01*
G01X16818102Y-3643630D01*
G01X16809212Y-3625850D01*
G01X17050004Y-3474720D02*
G01X17023334Y-3483610D01*
G01X17005554Y-3510280D01*
G01X16996664Y-3554730D01*
G01X16996664Y-3581400D01*
G01X17005554Y-3625850D01*
G01X17023334Y-3652520D01*
G01X17050004Y-3661410D01*
G01X17067784Y-3661410D01*
G01X17094454Y-3652520D01*
G01X17112234Y-3625850D01*
G01X17121124Y-3581400D01*
G01X17121124Y-3554730D01*
G01X17112234Y-3510280D01*
G01X17094454Y-3483610D01*
G01X17067784Y-3474720D01*
G01X17050004Y-3474720D01*
G01X17184116Y-3536950D02*
G01X17184116Y-3625850D01*
G01X17193006Y-3652520D01*
G01X17210786Y-3661410D01*
G01X17237456Y-3661410D01*
G01X17255236Y-3652520D01*
G01X17281906Y-3625850D01*
G01X17281906Y-3536950D02*
G01X17281906Y-3661410D01*
G01X17344898Y-3474720D02*
G01X17344898Y-3661410D01*
G01X17344898Y-3474720D02*
G01X17460468Y-3474720D01*
G01X17344898Y-3563620D02*
G01X17416018Y-3563620D01*
G01X13811250Y-248920D02*
G01X13802360Y-231140D01*
G01X13775690Y-222250D01*
G01X13749020Y-222250D01*
G01X13722350Y-231140D01*
G01X13713460Y-248920D01*
G01X13722350Y-266700D01*
G01X13740130Y-275590D01*
G01X13784580Y-284480D01*
G01X13802360Y-293370D01*
G01X13811250Y-311150D01*
G01X13811250Y-320040D01*
G01X13802360Y-337820D01*
G01X13775690Y-346710D01*
G01X13749020Y-346710D01*
G01X13722350Y-337820D01*
G01X13713460Y-320040D01*
G01X13874242Y-222250D02*
G01X13874242Y-408940D01*
G01X13874242Y-248920D02*
G01X13892022Y-231140D01*
G01X13909802Y-222250D01*
G01X13936472Y-222250D01*
G01X13954252Y-231140D01*
G01X13972032Y-248920D01*
G01X13980922Y-275590D01*
G01X13980922Y-293370D01*
G01X13972032Y-320040D01*
G01X13954252Y-337820D01*
G01X13936472Y-346710D01*
G01X13909802Y-346710D01*
G01X13892022Y-337820D01*
G01X13874242Y-320040D01*
G01X14043914Y-275590D02*
G01X14150594Y-275590D01*
G01X14150594Y-257810D01*
G01X14141704Y-240030D01*
G01X14132814Y-231140D01*
G01X14115034Y-222250D01*
G01X14088364Y-222250D01*
G01X14070584Y-231140D01*
G01X14052804Y-248920D01*
G01X14043914Y-275590D01*
G01X14043914Y-293370D01*
G01X14052804Y-320040D01*
G01X14070584Y-337820D01*
G01X14088364Y-346710D01*
G01X14115034Y-346710D01*
G01X14132814Y-337820D01*
G01X14150594Y-320040D01*
G01X14320266Y-222250D02*
G01X14320266Y-346710D01*
G01X14320266Y-248920D02*
G01X14302486Y-231140D01*
G01X14284706Y-222250D01*
G01X14258036Y-222250D01*
G01X14240256Y-231140D01*
G01X14222476Y-248920D01*
G01X14213586Y-275590D01*
G01X14213586Y-293370D01*
G01X14222476Y-320040D01*
G01X14240256Y-337820D01*
G01X14258036Y-346710D01*
G01X14284706Y-346710D01*
G01X14302486Y-337820D01*
G01X14320266Y-320040D01*
G01X14383258Y-160020D02*
G01X14383258Y-346710D01*
G01X14472158Y-222250D02*
G01X14383258Y-311150D01*
G01X14418818Y-275590D02*
G01X14481048Y-346710D01*
G01X14544040Y-275590D02*
G01X14650720Y-275590D01*
G01X14650720Y-257810D01*
G01X14641830Y-240030D01*
G01X14632940Y-231140D01*
G01X14615160Y-222250D01*
G01X14588490Y-222250D01*
G01X14570710Y-231140D01*
G01X14552930Y-248920D01*
G01X14544040Y-275590D01*
G01X14544040Y-293370D01*
G01X14552930Y-320040D01*
G01X14570710Y-337820D01*
G01X14588490Y-346710D01*
G01X14615160Y-346710D01*
G01X14632940Y-337820D01*
G01X14650720Y-320040D01*
G01X14713712Y-222250D02*
G01X14713712Y-346710D01*
G01X14713712Y-275590D02*
G01X14722602Y-248920D01*
G01X14740382Y-231140D01*
G01X14758162Y-222250D01*
G01X14784832Y-222250D01*
G01X15676880Y-670560D02*
G01X15490190Y-670560D01*
G01X15676880Y-670560D02*
G01X15490190Y-741680D01*
G01X15676880Y-812800D02*
G01X15490190Y-741680D01*
G01X15676880Y-812800D02*
G01X15490190Y-812800D01*
G01X15676880Y-875792D02*
G01X15667990Y-884682D01*
G01X15676880Y-893572D01*
G01X15685770Y-884682D01*
G01X15676880Y-875792D01*
G01X15614650Y-884682D02*
G01X15490190Y-884682D01*
G01X15587980Y-1063244D02*
G01X15605760Y-1045464D01*
G01X15614650Y-1027684D01*
G01X15614650Y-1001014D01*
G01X15605760Y-983234D01*
G01X15587980Y-965454D01*
G01X15561310Y-956564D01*
G01X15543530Y-956564D01*
G01X15516860Y-965454D01*
G01X15499080Y-983234D01*
G01X15490190Y-1001014D01*
G01X15490190Y-1027684D01*
G01X15499080Y-1045464D01*
G01X15516860Y-1063244D01*
G01X15614650Y-1126236D02*
G01X15490190Y-1126236D01*
G01X15561310Y-1126236D02*
G01X15587980Y-1135126D01*
G01X15605760Y-1152906D01*
G01X15614650Y-1170686D01*
G01X15614650Y-1197356D01*
G01X15614650Y-1304798D02*
G01X15605760Y-1287018D01*
G01X15587980Y-1269238D01*
G01X15561310Y-1260348D01*
G01X15543530Y-1260348D01*
G01X15516860Y-1269238D01*
G01X15499080Y-1287018D01*
G01X15490190Y-1304798D01*
G01X15490190Y-1331468D01*
G01X15499080Y-1349248D01*
G01X15516860Y-1367028D01*
G01X15543530Y-1375918D01*
G01X15561310Y-1375918D01*
G01X15587980Y-1367028D01*
G01X15605760Y-1349248D01*
G01X15614650Y-1331468D01*
G01X15614650Y-1304798D01*
G01X15650210Y-1563370D02*
G01X15667990Y-1545590D01*
G01X15676880Y-1518920D01*
G01X15676880Y-1483360D01*
G01X15667990Y-1456690D01*
G01X15650210Y-1438910D01*
G01X15632430Y-1438910D01*
G01X15614650Y-1447800D01*
G01X15605760Y-1456690D01*
G01X15596870Y-1474470D01*
G01X15579090Y-1527810D01*
G01X15570200Y-1545590D01*
G01X15561310Y-1554480D01*
G01X15543530Y-1563370D01*
G01X15516860Y-1563370D01*
G01X15499080Y-1545590D01*
G01X15490190Y-1518920D01*
G01X15490190Y-1483360D01*
G01X15499080Y-1456690D01*
G01X15516860Y-1438910D01*
G01X15676880Y-1626362D02*
G01X15490190Y-1626362D01*
G01X15676880Y-1626362D02*
G01X15676880Y-1688592D01*
G01X15667990Y-1715262D01*
G01X15650210Y-1733042D01*
G01X15632430Y-1741932D01*
G01X15605760Y-1750822D01*
G01X15561310Y-1750822D01*
G01X15534640Y-1741932D01*
G01X15516860Y-1733042D01*
G01X15499080Y-1715262D01*
G01X15490190Y-1688592D01*
G01X15490190Y-1626362D01*
G01X10335260Y-196850D02*
G01X10335260Y-321310D01*
G01X10335260Y-232410D02*
G01X10361930Y-205740D01*
G01X10379710Y-196850D01*
G01X10406380Y-196850D01*
G01X10424160Y-205740D01*
G01X10433050Y-232410D01*
G01X10433050Y-321310D01*
G01X10433050Y-232410D02*
G01X10459720Y-205740D01*
G01X10477500Y-196850D01*
G01X10504170Y-196850D01*
G01X10521950Y-205740D01*
G01X10530840Y-232410D01*
G01X10530840Y-321310D01*
G01X10593832Y-134620D02*
G01X10602722Y-143510D01*
G01X10611612Y-134620D01*
G01X10602722Y-125730D01*
G01X10593832Y-134620D01*
G01X10602722Y-196850D02*
G01X10602722Y-321310D01*
G01X10781284Y-223520D02*
G01X10763504Y-205740D01*
G01X10745724Y-196850D01*
G01X10719054Y-196850D01*
G01X10701274Y-205740D01*
G01X10683494Y-223520D01*
G01X10674604Y-250190D01*
G01X10674604Y-267970D01*
G01X10683494Y-294640D01*
G01X10701274Y-312420D01*
G01X10719054Y-321310D01*
G01X10745724Y-321310D01*
G01X10763504Y-312420D01*
G01X10781284Y-294640D01*
G01X10844276Y-196850D02*
G01X10844276Y-321310D01*
G01X10844276Y-250190D02*
G01X10853166Y-223520D01*
G01X10870946Y-205740D01*
G01X10888726Y-196850D01*
G01X10915396Y-196850D01*
G01X11022838Y-196850D02*
G01X11005058Y-205740D01*
G01X10987278Y-223520D01*
G01X10978388Y-250190D01*
G01X10978388Y-267970D01*
G01X10987278Y-294640D01*
G01X11005058Y-312420D01*
G01X11022838Y-321310D01*
G01X11049508Y-321310D01*
G01X11067288Y-312420D01*
G01X11085068Y-294640D01*
G01X11093958Y-267970D01*
G01X11093958Y-250190D01*
G01X11085068Y-223520D01*
G01X11067288Y-205740D01*
G01X11049508Y-196850D01*
G01X11022838Y-196850D01*
G01X11156950Y-196850D02*
G01X11156950Y-383540D01*
G01X11156950Y-223520D02*
G01X11174730Y-205740D01*
G01X11192510Y-196850D01*
G01X11219180Y-196850D01*
G01X11236960Y-205740D01*
G01X11254740Y-223520D01*
G01X11263630Y-250190D01*
G01X11263630Y-267970D01*
G01X11254740Y-294640D01*
G01X11236960Y-312420D01*
G01X11219180Y-321310D01*
G01X11192510Y-321310D01*
G01X11174730Y-312420D01*
G01X11156950Y-294640D01*
G01X11326622Y-134620D02*
G01X11326622Y-321310D01*
G01X11326622Y-232410D02*
G01X11353292Y-205740D01*
G01X11371072Y-196850D01*
G01X11397742Y-196850D01*
G01X11415522Y-205740D01*
G01X11424412Y-232410D01*
G01X11424412Y-321310D01*
G01X11531854Y-196850D02*
G01X11514074Y-205740D01*
G01X11496294Y-223520D01*
G01X11487404Y-250190D01*
G01X11487404Y-267970D01*
G01X11496294Y-294640D01*
G01X11514074Y-312420D01*
G01X11531854Y-321310D01*
G01X11558524Y-321310D01*
G01X11576304Y-312420D01*
G01X11594084Y-294640D01*
G01X11602974Y-267970D01*
G01X11602974Y-250190D01*
G01X11594084Y-223520D01*
G01X11576304Y-205740D01*
G01X11558524Y-196850D01*
G01X11531854Y-196850D01*
G01X11665966Y-196850D02*
G01X11665966Y-321310D01*
G01X11665966Y-232410D02*
G01X11692636Y-205740D01*
G01X11710416Y-196850D01*
G01X11737086Y-196850D01*
G01X11754866Y-205740D01*
G01X11763756Y-232410D01*
G01X11763756Y-321310D01*
G01X11826748Y-250190D02*
G01X11933428Y-250190D01*
G01X11933428Y-232410D01*
G01X11924538Y-214630D01*
G01X11915648Y-205740D01*
G01X11897868Y-196850D01*
G01X11871198Y-196850D01*
G01X11853418Y-205740D01*
G01X11835638Y-223520D01*
G01X11826748Y-250190D01*
G01X11826748Y-267970D01*
G01X11835638Y-294640D01*
G01X11853418Y-312420D01*
G01X11871198Y-321310D01*
G01X11897868Y-321310D01*
G01X11915648Y-312420D01*
G01X11933428Y-294640D01*
G01X5585460Y-1835150D02*
G01X5585460Y-2021840D01*
G01X5585460Y-1861820D02*
G01X5603240Y-1844040D01*
G01X5621020Y-1835150D01*
G01X5647690Y-1835150D01*
G01X5665470Y-1844040D01*
G01X5683250Y-1861820D01*
G01X5692140Y-1888490D01*
G01X5692140Y-1906270D01*
G01X5683250Y-1932940D01*
G01X5665470Y-1950720D01*
G01X5647690Y-1959610D01*
G01X5621020Y-1959610D01*
G01X5603240Y-1950720D01*
G01X5585460Y-1932940D01*
G01X5799582Y-1835150D02*
G01X5781802Y-1844040D01*
G01X5764022Y-1861820D01*
G01X5755132Y-1888490D01*
G01X5755132Y-1906270D01*
G01X5764022Y-1932940D01*
G01X5781802Y-1950720D01*
G01X5799582Y-1959610D01*
G01X5826252Y-1959610D01*
G01X5844032Y-1950720D01*
G01X5861812Y-1932940D01*
G01X5870702Y-1906270D01*
G01X5870702Y-1888490D01*
G01X5861812Y-1861820D01*
G01X5844032Y-1844040D01*
G01X5826252Y-1835150D01*
G01X5799582Y-1835150D01*
G01X5960364Y-1772920D02*
G01X5960364Y-1924050D01*
G01X5969254Y-1950720D01*
G01X5987034Y-1959610D01*
G01X6004814Y-1959610D01*
G01X5933694Y-1835150D02*
G01X5995924Y-1835150D01*
G01X6067806Y-1888490D02*
G01X6174486Y-1888490D01*
G01X6174486Y-1870710D01*
G01X6165596Y-1852930D01*
G01X6156706Y-1844040D01*
G01X6138926Y-1835150D01*
G01X6112256Y-1835150D01*
G01X6094476Y-1844040D01*
G01X6076696Y-1861820D01*
G01X6067806Y-1888490D01*
G01X6067806Y-1906270D01*
G01X6076696Y-1932940D01*
G01X6094476Y-1950720D01*
G01X6112256Y-1959610D01*
G01X6138926Y-1959610D01*
G01X6156706Y-1950720D01*
G01X6174486Y-1932940D01*
G01X6237478Y-1835150D02*
G01X6237478Y-1959610D01*
G01X6237478Y-1870710D02*
G01X6264148Y-1844040D01*
G01X6281928Y-1835150D01*
G01X6308598Y-1835150D01*
G01X6326378Y-1844040D01*
G01X6335268Y-1870710D01*
G01X6335268Y-1959610D01*
G01X6424930Y-1772920D02*
G01X6424930Y-1924050D01*
G01X6433820Y-1950720D01*
G01X6451600Y-1959610D01*
G01X6469380Y-1959610D01*
G01X6398260Y-1835150D02*
G01X6460490Y-1835150D01*
G01X6532372Y-1772920D02*
G01X6541262Y-1781810D01*
G01X6550152Y-1772920D01*
G01X6541262Y-1764030D01*
G01X6532372Y-1772920D01*
G01X6541262Y-1835150D02*
G01X6541262Y-1959610D01*
G01X6657594Y-1835150D02*
G01X6639814Y-1844040D01*
G01X6622034Y-1861820D01*
G01X6613144Y-1888490D01*
G01X6613144Y-1906270D01*
G01X6622034Y-1932940D01*
G01X6639814Y-1950720D01*
G01X6657594Y-1959610D01*
G01X6684264Y-1959610D01*
G01X6702044Y-1950720D01*
G01X6719824Y-1932940D01*
G01X6728714Y-1906270D01*
G01X6728714Y-1888490D01*
G01X6719824Y-1861820D01*
G01X6702044Y-1844040D01*
G01X6684264Y-1835150D01*
G01X6657594Y-1835150D01*
G01X6791706Y-1835150D02*
G01X6791706Y-1959610D01*
G01X6791706Y-1870710D02*
G01X6818376Y-1844040D01*
G01X6836156Y-1835150D01*
G01X6862826Y-1835150D01*
G01X6880606Y-1844040D01*
G01X6889496Y-1870710D01*
G01X6889496Y-1959610D01*
G01X6889496Y-1870710D02*
G01X6916166Y-1844040D01*
G01X6933946Y-1835150D01*
G01X6960616Y-1835150D01*
G01X6978396Y-1844040D01*
G01X6987286Y-1870710D01*
G01X6987286Y-1959610D01*
G01X7050278Y-1888490D02*
G01X7156958Y-1888490D01*
G01X7156958Y-1870710D01*
G01X7148068Y-1852930D01*
G01X7139178Y-1844040D01*
G01X7121398Y-1835150D01*
G01X7094728Y-1835150D01*
G01X7076948Y-1844040D01*
G01X7059168Y-1861820D01*
G01X7050278Y-1888490D01*
G01X7050278Y-1906270D01*
G01X7059168Y-1932940D01*
G01X7076948Y-1950720D01*
G01X7094728Y-1959610D01*
G01X7121398Y-1959610D01*
G01X7139178Y-1950720D01*
G01X7156958Y-1932940D01*
G01X7246620Y-1772920D02*
G01X7246620Y-1924050D01*
G01X7255510Y-1950720D01*
G01X7273290Y-1959610D01*
G01X7291070Y-1959610D01*
G01X7219950Y-1835150D02*
G01X7282180Y-1835150D01*
G01X7354062Y-1888490D02*
G01X7460742Y-1888490D01*
G01X7460742Y-1870710D01*
G01X7451852Y-1852930D01*
G01X7442962Y-1844040D01*
G01X7425182Y-1835150D01*
G01X7398512Y-1835150D01*
G01X7380732Y-1844040D01*
G01X7362952Y-1861820D01*
G01X7354062Y-1888490D01*
G01X7354062Y-1906270D01*
G01X7362952Y-1932940D01*
G01X7380732Y-1950720D01*
G01X7398512Y-1959610D01*
G01X7425182Y-1959610D01*
G01X7442962Y-1950720D01*
G01X7460742Y-1932940D01*
G01X7523734Y-1835150D02*
G01X7523734Y-1959610D01*
G01X7523734Y-1888490D02*
G01X7532624Y-1861820D01*
G01X7550404Y-1844040D01*
G01X7568184Y-1835150D01*
G01X7594854Y-1835150D01*
G01X2753360Y-579120D02*
G01X2753360Y-765810D01*
G01X2753360Y-765810D02*
G01X2860040Y-765810D01*
G01X3056382Y-623570D02*
G01X3047492Y-605790D01*
G01X3029712Y-588010D01*
G01X3011932Y-579120D01*
G01X2976372Y-579120D01*
G01X2958592Y-588010D01*
G01X2940812Y-605790D01*
G01X2931922Y-623570D01*
G01X2923032Y-650240D01*
G01X2923032Y-694690D01*
G01X2931922Y-721360D01*
G01X2940812Y-739140D01*
G01X2958592Y-756920D01*
G01X2976372Y-765810D01*
G01X3011932Y-765810D01*
G01X3029712Y-756920D01*
G01X3047492Y-739140D01*
G01X3056382Y-721360D01*
G01X3119374Y-579120D02*
G01X3119374Y-765810D01*
G01X3119374Y-579120D02*
G01X3181604Y-579120D01*
G01X3208274Y-588010D01*
G01X3226054Y-605790D01*
G01X3234944Y-623570D01*
G01X3243834Y-650240D01*
G01X3243834Y-694690D01*
G01X3234944Y-721360D01*
G01X3226054Y-739140D01*
G01X3208274Y-756920D01*
G01X3181604Y-765810D01*
G01X3119374Y-765810D01*
G01X548899Y-2876550D02*
G01X548899Y-3001010D01*
G01X548899Y-2903220D02*
G01X531119Y-2885440D01*
G01X513339Y-2876550D01*
G01X486669Y-2876550D01*
G01X468889Y-2885440D01*
G01X451109Y-2903220D01*
G01X442219Y-2929890D01*
G01X442219Y-2947670D01*
G01X451109Y-2974340D01*
G01X468889Y-2992120D01*
G01X486669Y-3001010D01*
G01X513339Y-3001010D01*
G01X531119Y-2992120D01*
G01X548899Y-2974340D01*
G01X611891Y-2876550D02*
G01X611891Y-3001010D01*
G01X611891Y-2929890D02*
G01X620781Y-2903220D01*
G01X638561Y-2885440D01*
G01X656341Y-2876550D01*
G01X683011Y-2876550D01*
G01X852683Y-2814320D02*
G01X852683Y-3001010D01*
G01X852683Y-2903220D02*
G01X834903Y-2885440D01*
G01X817123Y-2876550D01*
G01X790453Y-2876550D01*
G01X772673Y-2885440D01*
G01X754893Y-2903220D01*
G01X746003Y-2929890D01*
G01X746003Y-2947670D01*
G01X754893Y-2974340D01*
G01X772673Y-2992120D01*
G01X790453Y-3001010D01*
G01X817123Y-3001010D01*
G01X834903Y-2992120D01*
G01X852683Y-2974340D01*
G01X915675Y-2876550D02*
G01X915675Y-2965450D01*
G01X924565Y-2992120D01*
G01X942345Y-3001010D01*
G01X969015Y-3001010D01*
G01X986795Y-2992120D01*
G01X1013465Y-2965450D01*
G01X1013465Y-2876550D02*
G01X1013465Y-3001010D01*
G01X1076457Y-2814320D02*
G01X1085347Y-2823210D01*
G01X1094237Y-2814320D01*
G01X1085347Y-2805430D01*
G01X1076457Y-2814320D01*
G01X1085347Y-2876550D02*
G01X1085347Y-3001010D01*
G01X1157229Y-2876550D02*
G01X1157229Y-3001010D01*
G01X1157229Y-2912110D02*
G01X1183899Y-2885440D01*
G01X1201679Y-2876550D01*
G01X1228349Y-2876550D01*
G01X1246129Y-2885440D01*
G01X1255019Y-2912110D01*
G01X1255019Y-3001010D01*
G01X1362461Y-2876550D02*
G01X1344681Y-2885440D01*
G01X1326901Y-2903220D01*
G01X1318011Y-2929890D01*
G01X1318011Y-2947670D01*
G01X1326901Y-2974340D01*
G01X1344681Y-2992120D01*
G01X1362461Y-3001010D01*
G01X1389131Y-3001010D01*
G01X1406911Y-2992120D01*
G01X1424691Y-2974340D01*
G01X1433581Y-2947670D01*
G01X1433581Y-2929890D01*
G01X1424691Y-2903220D01*
G01X1406911Y-2885440D01*
G01X1389131Y-2876550D01*
G01X1362461Y-2876550D01*
G36*
G01X-1038770Y-5247742D02*
G01X-1051648Y-5244333D01*
G01X-1051648Y-5235243D01*
G01X-1047103Y-5224636D01*
G01X-1042557Y-5212515D01*
G01X-1030436Y-5179182D01*
G01X-1025891Y-5165545D01*
G01X-1003164Y-5104939D01*
G01X-994073Y-5077667D01*
G01X-966800Y-5004939D01*
G01X-957709Y-4977667D01*
G01X-947482Y-4950394D01*
G01X-853164Y-4950394D01*
G01X-853164Y-4959485D01*
G01X-727406Y-4961000D01*
G01X-634603Y-4960242D01*
G01X-604679Y-4957970D01*
G01X-607709Y-4947364D01*
G01X-612255Y-4935242D01*
G01X-621345Y-4907970D01*
G01X-630436Y-4883727D01*
G01X-639527Y-4856455D01*
G01X-648618Y-4832212D01*
G01X-657709Y-4804939D01*
G01X-671345Y-4768576D01*
G01X-680436Y-4741303D01*
G01X-684982Y-4729182D01*
G01X-689527Y-4718576D01*
G01X-694073Y-4704939D01*
G01X-700133Y-4688273D01*
G01X-712255Y-4651909D01*
G01X-718315Y-4636758D01*
G01X-722861Y-4623121D01*
G01X-728921Y-4614030D01*
G01X-732709Y-4615167D01*
G01X-734982Y-4621606D01*
G01X-739527Y-4635242D01*
G01X-753164Y-4671606D01*
G01X-757709Y-4685242D01*
G01X-766800Y-4709485D01*
G01X-775891Y-4736758D01*
G01X-794073Y-4785242D01*
G01X-803164Y-4812515D01*
G01X-812255Y-4836758D01*
G01X-818315Y-4851909D01*
G01X-822861Y-4865546D01*
G01X-831952Y-4889788D01*
G01X-834982Y-4900394D01*
G01X-848618Y-4936757D01*
G01X-853164Y-4950394D01*
G01X-853164Y-4950394D01*
G01X-947482Y-4950394D01*
G01X-934982Y-4917061D01*
G01X-925891Y-4889788D01*
G01X-921345Y-4877667D01*
G01X-915285Y-4862515D01*
G01X-909224Y-4845849D01*
G01X-904679Y-4832212D01*
G01X-881951Y-4771606D01*
G01X-877406Y-4757970D01*
G01X-868315Y-4733727D01*
G01X-863770Y-4720091D01*
G01X-845588Y-4671606D01*
G01X-841043Y-4657970D01*
G01X-831952Y-4633727D01*
G01X-827406Y-4620091D01*
G01X-813770Y-4583727D01*
G01X-804679Y-4556454D01*
G01X-800133Y-4544333D01*
G01X-795588Y-4533727D01*
G01X-789527Y-4523121D01*
G01X-771724Y-4519712D01*
G01X-727406Y-4518576D01*
G01X-665285Y-4521606D01*
G01X-657709Y-4529182D01*
G01X-653164Y-4541303D01*
G01X-644073Y-4568576D01*
G01X-625891Y-4617061D01*
G01X-621345Y-4630697D01*
G01X-612255Y-4654939D01*
G01X-607709Y-4668576D01*
G01X-589527Y-4717061D01*
G01X-584982Y-4730697D01*
G01X-575891Y-4754939D01*
G01X-569830Y-4771606D01*
G01X-563770Y-4786758D01*
G01X-554679Y-4814030D01*
G01X-531951Y-4874636D01*
G01X-522861Y-4901909D01*
G01X-504679Y-4950394D01*
G01X-500133Y-4964030D01*
G01X-491042Y-4988273D01*
G01X-478921Y-5021606D01*
G01X-474376Y-5035242D01*
G01X-469830Y-5045848D01*
G01X-465285Y-5057970D01*
G01X-460739Y-5071606D01*
G01X-442558Y-5120091D01*
G01X-438012Y-5133727D01*
G01X-428921Y-5157970D01*
G01X-424376Y-5171606D01*
G01X-410739Y-5207970D01*
G01X-401648Y-5235243D01*
G01X-401648Y-5245849D01*
G01X-439527Y-5248879D01*
G01X-489527Y-5247364D01*
G01X-500133Y-5244333D01*
G01X-504679Y-5238273D01*
G01X-509224Y-5226152D01*
G01X-518315Y-5198879D01*
G01X-527406Y-5174636D01*
G01X-545588Y-5120091D01*
G01X-554679Y-5095849D01*
G01X-568315Y-5054939D01*
G01X-569830Y-5045848D01*
G01X-727406Y-5045848D01*
G01X-886497Y-5048879D01*
G01X-891042Y-5056454D01*
G01X-909224Y-5111000D01*
G01X-918315Y-5135242D01*
G01X-927406Y-5162515D01*
G01X-941042Y-5198879D01*
G01X-945588Y-5214030D01*
G01X-951649Y-5230697D01*
G01X-959224Y-5244333D01*
G01X-973239Y-5247742D01*
G01X-1006194Y-5248879D01*
G01X-1038770Y-5247742D01*
G37*
G36*
G01X443806Y-5248879D02*
G01X398352Y-5247364D01*
G01X396836Y-4886758D01*
G01X398086Y-4736758D01*
G01X493806Y-4736758D01*
G01X495321Y-4871606D01*
G01X495321Y-4871606D01*
G01X498352Y-4877667D01*
G01X542291Y-4879182D01*
G01X589261Y-4877667D01*
G01X605927Y-4876152D01*
G01X625624Y-4874636D01*
G01X643806Y-4871606D01*
G01X668048Y-4868576D01*
G01X686230Y-4864030D01*
G01X707443Y-4854939D01*
G01X716533Y-4850394D01*
G01X724109Y-4844333D01*
G01X731685Y-4836758D01*
G01X746836Y-4818576D01*
G01X754412Y-4807970D01*
G01X760473Y-4794333D01*
G01X765018Y-4780697D01*
G01X768049Y-4768576D01*
G01X769564Y-4735242D01*
G01X768049Y-4698879D01*
G01X765018Y-4686757D01*
G01X760473Y-4673121D01*
G01X752897Y-4656454D01*
G01X743806Y-4645848D01*
G01X736230Y-4638273D01*
G01X727140Y-4630697D01*
G01X716533Y-4624636D01*
G01X707443Y-4620091D01*
G01X696836Y-4615546D01*
G01X681685Y-4611000D01*
G01X668048Y-4607970D01*
G01X507442Y-4604939D01*
G01X498352Y-4604939D01*
G01X494942Y-4638651D01*
G01X493806Y-4736758D01*
G01X398086Y-4736758D01*
G01X399867Y-4523121D01*
G01X429412Y-4519712D01*
G01X511988Y-4518576D01*
G01X625624Y-4520091D01*
G01X665018Y-4523121D01*
G01X675624Y-4524636D01*
G01X695321Y-4526151D01*
G01X715018Y-4530697D01*
G01X727140Y-4533727D01*
G01X737746Y-4536757D01*
G01X761988Y-4545848D01*
G01X774109Y-4551909D01*
G01X787745Y-4559485D01*
G01X799867Y-4567060D01*
G01X818049Y-4582212D01*
G01X825624Y-4589788D01*
G01X831685Y-4597364D01*
G01X839261Y-4604939D01*
G01X845321Y-4612515D01*
G01X851382Y-4623121D01*
G01X857443Y-4635242D01*
G01X866533Y-4659485D01*
G01X869564Y-4670091D01*
G01X871079Y-4680697D01*
G01X872594Y-4714030D01*
G01X871079Y-4747364D01*
G01X868049Y-4768576D01*
G01X865018Y-4782212D01*
G01X860473Y-4797364D01*
G01X855927Y-4809485D01*
G01X849867Y-4823121D01*
G01X840776Y-4838273D01*
G01X833200Y-4848879D01*
G01X827140Y-4856455D01*
G01X811988Y-4874636D01*
G01X796836Y-4886758D01*
G01X786230Y-4897364D01*
G01X763503Y-4912515D01*
G01X745321Y-4921606D01*
G01X734715Y-4926151D01*
G01X729412Y-4928046D01*
G01X728655Y-4930697D01*
G01X734715Y-4941303D01*
G01X761988Y-4973121D01*
G01X774109Y-4988273D01*
G01X784715Y-4998879D01*
G01X793806Y-5011000D01*
G01X801382Y-5018576D01*
G01X831685Y-5054939D01*
G01X842291Y-5065545D01*
G01X851382Y-5077667D01*
G01X858958Y-5085242D01*
G01X889261Y-5121606D01*
G01X896836Y-5129182D01*
G01X908958Y-5144333D01*
G01X916533Y-5151909D01*
G01X928655Y-5167061D01*
G01X943806Y-5185242D01*
G01X954412Y-5195848D01*
G01X963503Y-5207970D01*
G01X978655Y-5223121D01*
G01X990776Y-5238273D01*
G01X992291Y-5245849D01*
G01X936230Y-5248879D01*
G01X874109Y-5245849D01*
G01X865018Y-5238273D01*
G01X858958Y-5230697D01*
G01X822594Y-5188273D01*
G01X810473Y-5173121D01*
G01X792291Y-5151909D01*
G01X746836Y-5097364D01*
G01X728655Y-5076151D01*
G01X716533Y-5061000D01*
G01X680170Y-5018576D01*
G01X668048Y-5003424D01*
G01X652897Y-4985243D01*
G01X642291Y-4974636D01*
G01X633200Y-4962515D01*
G01X627139Y-4959485D01*
G01X568049Y-4961000D01*
G01X507442Y-4959485D01*
G01X498352Y-4959485D01*
G01X494942Y-4995470D01*
G01X493806Y-5100394D01*
G01X490776Y-5244333D01*
G01X477518Y-5247742D01*
G01X443806Y-5248879D01*
G37*
G36*
G01X-322861Y-5248879D02*
G01X-368315Y-5247364D01*
G01X-368315Y-5238273D01*
G01X-363770Y-5226152D01*
G01X-354679Y-5198879D01*
G01X-341042Y-5162515D01*
G01X-336497Y-5148879D01*
G01X-318315Y-5100394D01*
G01X-312255Y-5083727D01*
G01X-306194Y-5068576D01*
G01X-297103Y-5041303D01*
G01X-278921Y-4992818D01*
G01X-269830Y-4965545D01*
G01X-264717Y-4951909D01*
G01X-169830Y-4951909D01*
G01X-168315Y-4959485D01*
G01X-44073Y-4961000D01*
G01X47973Y-4959485D01*
G01X78655Y-4954939D01*
G01X75624Y-4945848D01*
G01X71079Y-4933727D01*
G01X66533Y-4920091D01*
G01X57442Y-4895848D01*
G01X48351Y-4868576D01*
G01X39261Y-4844333D01*
G01X30170Y-4817060D01*
G01X16533Y-4780697D01*
G01X11988Y-4767061D01*
G01X-133Y-4733727D01*
G01X-4679Y-4720091D01*
G01X-18315Y-4683727D01*
G01X-27406Y-4656454D01*
G01X-41042Y-4620091D01*
G01X-45588Y-4611000D01*
G01X-48239Y-4611758D01*
G01X-50133Y-4617061D01*
G01X-54679Y-4629182D01*
G01X-63770Y-4656454D01*
G01X-81952Y-4704939D01*
G01X-91042Y-4732212D01*
G01X-100133Y-4756455D01*
G01X-104679Y-4770091D01*
G01X-113770Y-4794333D01*
G01X-118315Y-4807970D01*
G01X-127406Y-4832212D01*
G01X-136497Y-4859485D01*
G01X-150133Y-4895848D01*
G01X-154679Y-4909485D01*
G01X-160739Y-4926151D01*
G01X-166800Y-4941303D01*
G01X-169830Y-4951909D01*
G01X-169830Y-4951909D01*
G01X-264717Y-4951909D01*
G01X-238012Y-4880697D01*
G01X-228921Y-4853424D01*
G01X-210739Y-4804939D01*
G01X-206194Y-4791303D01*
G01X-197103Y-4767061D01*
G01X-192558Y-4753424D01*
G01X-188012Y-4741303D01*
G01X-181951Y-4727667D01*
G01X-177406Y-4714030D01*
G01X-174376Y-4703424D01*
G01X-151648Y-4642818D01*
G01X-145588Y-4627667D01*
G01X-141042Y-4614030D01*
G01X-138012Y-4603424D01*
G01X-124376Y-4567060D01*
G01X-118315Y-4551909D01*
G01X-112255Y-4533727D01*
G01X-104679Y-4521606D01*
G01X-45588Y-4518576D01*
G01X16533Y-4521606D01*
G01X22594Y-4525394D01*
G01X25624Y-4530697D01*
G01X30170Y-4541303D01*
G01X39261Y-4565545D01*
G01X48351Y-4592818D01*
G01X71079Y-4653424D01*
G01X75624Y-4667061D01*
G01X84715Y-4691303D01*
G01X89261Y-4704939D01*
G01X98352Y-4729182D01*
G01X102897Y-4742818D01*
G01X121079Y-4791303D01*
G01X127139Y-4807970D01*
G01X133200Y-4823121D01*
G01X142291Y-4850394D01*
G01X160473Y-4898879D01*
G01X169564Y-4926151D01*
G01X192291Y-4986758D01*
G01X201382Y-5014030D01*
G01X205927Y-5026151D01*
G01X218049Y-5056454D01*
G01X227140Y-5083727D01*
G01X254412Y-5156455D01*
G01X263503Y-5183727D01*
G01X281685Y-5232212D01*
G01X283200Y-5242818D01*
G01X270700Y-5247364D01*
G01X236230Y-5248879D01*
G01X186230Y-5245849D01*
G01X178655Y-5238273D01*
G01X169564Y-5211000D01*
G01X165018Y-5198879D01*
G01X155927Y-5171606D01*
G01X151382Y-5159485D01*
G01X142291Y-5132212D01*
G01X137745Y-5120091D01*
G01X128655Y-5092818D01*
G01X124109Y-5080697D01*
G01X119564Y-5070091D01*
G01X115018Y-5054939D01*
G01X111988Y-5045848D01*
G01X-203164Y-5045848D01*
G01X-206194Y-5054939D01*
G01X-224376Y-5104939D01*
G01X-228921Y-5117061D01*
G01X-238012Y-5144333D01*
G01X-241042Y-5154939D01*
G01X-245588Y-5167061D01*
G01X-251648Y-5182212D01*
G01X-266800Y-5227667D01*
G01X-274376Y-5242818D01*
G01X-288770Y-5247364D01*
G01X-322861Y-5248879D01*
G37*
G04 Text End*

G04 Pad Start*
G54D11*
G01X11337100Y241300D03*
G01X11212106Y241300D03*
G01X11087113Y241300D03*
G01X10962094Y241300D03*
G01X10837101Y241300D03*
G54D12*
G01X2565400Y-279400D03*
G01X2819400Y-279400D03*
G01X3073400Y-279400D03*
G01X3327400Y-279400D03*
G54D13*
G01X368300Y-7302500D03*
G01X368300Y-6402502D03*
G01X4178300Y-7289800D03*
G01X4178300Y-6389802D03*
G01X12687300Y-7226300D03*
G01X12687300Y-6326302D03*
G01X8382000Y-7226300D03*
G01X8382000Y-6326302D03*
G01X15722600Y-7277100D03*
G01X15722600Y-6377102D03*
G54D14*
G01X1959102Y-6756400D03*
G01X1419098Y-6756400D03*
G01X5883402Y-6832600D03*
G01X5343398Y-6832600D03*
G01X14608302Y-6769100D03*
G01X14068298Y-6769100D03*
G01X9922002Y-6832600D03*
G01X9381998Y-6832600D03*
G01X17313402Y-6731000D03*
G01X16773398Y-6731000D03*
G54D16*
G01X2705100Y-2108200D03*
G54D17*
G01X2451100Y-3632200D03*
G01X1943100Y-3632200D03*
G01X1435100Y-3632200D03*
G01X927100Y-3632200D03*
G01X419100Y-3632200D03*
G01X-88900Y-3632200D03*
G01X-596900Y-3632200D03*
G01X-850900Y-2108200D03*
G01X-342900Y-2108200D03*
G01X165100Y-2108200D03*
G01X673100Y-2108200D03*
G01X1181100Y-2108200D03*
G01X1689100Y-2108200D03*
G01X2197100Y-2108200D03*
G01X2451100Y-2108200D03*
G01X1943100Y-2108200D03*
G01X1435100Y-2108200D03*
G01X927100Y-2108200D03*
G01X419100Y-2108200D03*
G01X-88900Y-2108200D03*
G01X-596900Y-2108200D03*
G01X-850900Y-3632200D03*
G01X-342900Y-3632200D03*
G01X165100Y-3632200D03*
G01X673100Y-3632200D03*
G01X1181100Y-3632200D03*
G01X1689100Y-3632200D03*
G01X2197100Y-3632200D03*
G54D16*
G01X2705100Y-3632200D03*
G54D18*
G01X6299201Y-1346200D03*
G01X6553200Y-1092201D03*
G01X6807199Y-1346200D03*
G54D19*
G01X10575100Y-3289300D03*
G01X10075101Y-3289300D03*
G01X12708700Y-3263900D03*
G01X12208701Y-3263900D03*
G01X14918500Y-3251200D03*
G01X14418501Y-3251200D03*
G01X17293400Y-3225800D03*
G01X16793401Y-3225800D03*
G54D20*
G01X14111300Y114300D03*
G01X14311300Y114300D03*
G54D13*
G01X7251700Y-3657600D03*
G01X8151698Y-3657600D03*
G54D21*
G01X15951200Y-520700D03*
G01X15951200Y-774700D03*
G01X15951200Y-1028700D03*
G01X15951200Y-1282700D03*
G01X15951200Y-1536700D03*
G01X15951200Y-1790700D03*
G54D22*
G01X5194300Y-3886200D03*
G01X5448300Y-3886200D03*
G01X5448300Y-3124200D03*
G01X5194300Y-3124200D03*
G01X5702300Y-3886200D03*
G01X5956300Y-3886200D03*
G01X5702300Y-3124200D03*
G01X5956300Y-3124200D03*
G04 Pad End*

G04 Via Start*
G54D23*
G01X1447800Y-2387600D03*
G01X6083300Y-3811702D03*
G01X5880100Y-3608502D03*
G01X5511800Y-4091102D03*
G01X3073400Y-3887902D03*
G01X1879600Y-2516302D03*
G01X1524000Y-2287702D03*
G01X6896100Y-4013200D03*
G01X5118100Y-3479800D03*
G01X13411201Y-584200D03*
G01X15172500Y-1460500D03*
G01X2044700Y-3683000D03*
G01X1968500Y-4089400D03*
G01X15786100Y-1600200D03*
G01X12280900Y-787400D03*
G04 Via End*

G04 Track Start*
G54D24*
G01X2819400Y-279400D02*
G01X1549400Y-1549400D01*
G01X1549400Y-2159000D01*
G01X1447800Y-2260600D01*
G01X1447800Y-2387600D01*
G01X2565400Y-279400D02*
G01X1320800Y-1524000D01*
G01X1320800Y-2590800D01*
G01X1473200Y-2743200D01*
G01X1473200Y-3340100D01*
G01X1181100Y-3632200D01*
G01X4178300Y-6389802D02*
G01X4900600Y-6389802D01*
G01X5343398Y-6832600D01*
G01X6083300Y-3811702D02*
G01X5880100Y-3608502D01*
G01X5511800Y-4091102D02*
G01X3276600Y-4091102D01*
G01X3073400Y-3887902D01*
G01X1879600Y-2516302D02*
G01X1752600Y-2516302D01*
G01X1524000Y-2287702D01*
G01X6896100Y-4013200D02*
G01X7251700Y-3657600D01*
G01X5118100Y-3479800D02*
G01X5336708Y-3261192D01*
G01X5336708Y-1838792D01*
G01X6210300Y-965200D01*
G01X6604001Y-965200D01*
G01X6680201Y-1041400D01*
G01X6680201Y-1143000D01*
G01X6477001Y-1346200D01*
G01X6299201Y-1346200D01*
G01X6680201Y-1041400D02*
G01X7137401Y-584200D01*
G01X13411201Y-584200D01*
G01X15172500Y-1460500D02*
G01X15172500Y-1562100D01*
G01X15401100Y-1790700D01*
G01X15951200Y-1790700D01*
G01X11337100Y241300D02*
G01X11057700Y-38100D01*
G01X3568700Y-38100D01*
G01X3327400Y-279400D01*
G01X3327400Y-2755900D01*
G01X2451100Y-3632200D01*
G01X3073400Y-279400D02*
G01X2870200Y-482600D01*
G01X2743200Y-482600D01*
G01X2057400Y-1168400D01*
G01X2057400Y-3517900D01*
G01X1943100Y-3632200D01*
G01X1993900Y-3683000D01*
G01X2044700Y-3683000D01*
G01X1968500Y-6747002D02*
G01X1959102Y-6756400D01*
G01X2044700Y-3683000D02*
G01X2120900Y-3759200D01*
G01X5067300Y-3759200D01*
G01X5702300Y-3124200D01*
G01X1968500Y-6731000D02*
G01X2298700Y-6400800D01*
G01X3949700Y-6400800D01*
G01X4610100Y-7061200D01*
G01X5654802Y-7061200D01*
G01X5883402Y-6832600D01*
G01X6518402Y-6197600D01*
G01X9287002Y-6197600D01*
G01X9922002Y-6832600D01*
G01X10569702Y-6184900D01*
G01X14024102Y-6184900D01*
G01X14608302Y-6769100D01*
G01X15192502Y-6184900D01*
G01X16767302Y-6184900D01*
G01X17313402Y-6731000D01*
G01X15786100Y-1600200D02*
G01X15786100Y-1447800D01*
G01X15951200Y-1282700D01*
G01X6553200Y-1092201D02*
G01X6146800Y-1092201D01*
G01X5537200Y-1701801D01*
G01X5537200Y-2692401D01*
G01X5816600Y-2971801D01*
G01X5816600Y-3771900D01*
G01X5702300Y-3886200D01*
G01X6807199Y-1346200D02*
G01X8632000Y-1346200D01*
G01X10575100Y-3289300D01*
G01X14418501Y-3251200D02*
G01X14266101Y-3403600D01*
G01X10532301Y-3403600D01*
G01X10252901Y-3124200D01*
G01X5956300Y-3124200D01*
G01X14918500Y-3251200D02*
G01X14689900Y-3479800D01*
G01X8329498Y-3479800D01*
G01X8151698Y-3657600D01*
G01X165100Y-3632200D02*
G01X342900Y-3810000D01*
G01X4940300Y-3810000D01*
G01X5143500Y-4013200D01*
G01X6007100Y-4013200D01*
G01X6731000Y-3289300D01*
G01X10075101Y-3289300D01*
G01X12280900Y-787400D02*
G01X15227300Y-787400D01*
G01X15392400Y-622300D01*
G01X15798800Y-622300D01*
G01X15951200Y-774700D01*
G01X10962094Y241300D02*
G01X10733494Y12700D01*
G01X2630894Y12700D01*
G01X548094Y-2070100D01*
G01X548094Y-2146300D01*
G01X-88900Y-2783294D01*
G01X-88900Y-3632200D01*
G01X1968500Y-4089400D02*
G01X1968500Y-6731000D01*
G01X1968500Y-6747002D01*
G04 Track End*

M02*

