G04 Layer: TopSolderMaskLayer*
G04 EasyEDA Pro v2.2.47.7, 2026-04-27 23:22:34*
G04 Gerber Generator version 0.3*
G04 Scale: 100 percent, Rotated: No, Reflected: No*
G04 Dimensions in millimeters*
G04 Leading zeros omitted, absolute positions, 4 integers and 5 decimals*
G04 Generated by one-click*
G04 Object Configs: Pad,Via,Track,Text,Image,Dimension,BoardOutline,BoardCutout,CopperFilled,SolidRegion,FPCStiffener,Line,PlaneZone,ComponentProperty,ComponentSilkscreen,TearDrop*
G04 Layer Configs: 1,2,3,4,5,6,7,8,9,10,11,13,14,56*
G04 Copper Areas: 0*
%FSLAX45Y45*%
%MOMM*%
%AMRoundRect*1,1,$1,$2,$3*1,1,$1,$4,$5*1,1,$1,0-$2,0-$3*1,1,$1,0-$4,0-$5*20,1,$1,$2,$3,$4,$5,0*20,1,$1,$4,$5,0-$2,0-$3,0*20,1,$1,0-$2,0-$3,0-$4,0-$5,0*20,1,$1,0-$4,0-$5,$2,$3,0*4,1,4,$2,$3,$4,$5,0-$2,0-$3,0-$4,0-$5,$2,$3,0*%
%ADD10C,1.0016*%
%ADD11C,2.3*%
%ADD12C,2.4*%
%ADD13O,1.4016X3.80159*%
%ADD14RoundRect,0.09588X-0.80286X0.80286X0.80286X0.80286*%
%ADD15C,1.7016*%
%ADD16C,2.1336*%
%ADD17C,1.6*%
%ADD18O,1.2079X2.2032*%
%ADD19O,1.2032X2.2032*%
%ADD20C,1.6256*%
G75*


G04 Pad Start*
G54D10*
G01X11337100Y241300D03*
G01X11212106Y241300D03*
G01X11087113Y241300D03*
G01X10962094Y241300D03*
G01X10837101Y241300D03*
G54D11*
G01X2565400Y-279400D03*
G01X2819400Y-279400D03*
G01X3073400Y-279400D03*
G01X3327400Y-279400D03*
G54D12*
G01X368300Y-7302500D03*
G01X368300Y-6402502D03*
G01X4178300Y-7289800D03*
G01X4178300Y-6389802D03*
G01X12687300Y-7226300D03*
G01X12687300Y-6326302D03*
G01X8382000Y-7226300D03*
G01X8382000Y-6326302D03*
G01X15722600Y-7277100D03*
G01X15722600Y-6377102D03*
G54D13*
G01X1959102Y-6756400D03*
G01X1419098Y-6756400D03*
G01X5883402Y-6832600D03*
G01X5343398Y-6832600D03*
G01X14608302Y-6769100D03*
G01X14068298Y-6769100D03*
G01X9922002Y-6832600D03*
G01X9381998Y-6832600D03*
G01X17313402Y-6731000D03*
G01X16773398Y-6731000D03*
G54D14*
G01X2705100Y-2108200D03*
G54D15*
G01X2451100Y-3632200D03*
G01X1943100Y-3632200D03*
G01X1435100Y-3632200D03*
G01X927100Y-3632200D03*
G01X419100Y-3632200D03*
G01X-88900Y-3632200D03*
G01X-596900Y-3632200D03*
G01X-850900Y-2108200D03*
G01X-342900Y-2108200D03*
G01X165100Y-2108200D03*
G01X673100Y-2108200D03*
G01X1181100Y-2108200D03*
G01X1689100Y-2108200D03*
G01X2197100Y-2108200D03*
G01X2451100Y-2108200D03*
G01X1943100Y-2108200D03*
G01X1435100Y-2108200D03*
G01X927100Y-2108200D03*
G01X419100Y-2108200D03*
G01X-88900Y-2108200D03*
G01X-596900Y-2108200D03*
G01X-850900Y-3632200D03*
G01X-342900Y-3632200D03*
G01X165100Y-3632200D03*
G01X673100Y-3632200D03*
G01X1181100Y-3632200D03*
G01X1689100Y-3632200D03*
G01X2197100Y-3632200D03*
G54D14*
G01X2705100Y-3632200D03*
G54D16*
G01X6299201Y-1346200D03*
G01X6553200Y-1092201D03*
G01X6807199Y-1346200D03*
G54D17*
G01X10575100Y-3289300D03*
G01X10075101Y-3289300D03*
G01X12708700Y-3263900D03*
G01X12208701Y-3263900D03*
G01X14918500Y-3251200D03*
G01X14418501Y-3251200D03*
G01X17293400Y-3225800D03*
G01X16793401Y-3225800D03*
G54D19*
G01X14111300Y114300D03*
G01X14311300Y114300D03*
G54D12*
G01X7251700Y-3657600D03*
G01X8151698Y-3657600D03*
G54D20*
G01X15951200Y-520700D03*
G01X15951200Y-774700D03*
G01X15951200Y-1028700D03*
G01X15951200Y-1282700D03*
G01X15951200Y-1536700D03*
G01X15951200Y-1790700D03*
G01X5194300Y-3886200D03*
G01X5448300Y-3886200D03*
G01X5448300Y-3124200D03*
G01X5194300Y-3124200D03*
G01X5702300Y-3886200D03*
G01X5956300Y-3886200D03*
G01X5702300Y-3124200D03*
G01X5956300Y-3124200D03*
G04 Pad End*

M02*

